if (_typeface_js && _typeface_js.loadFace) _typeface_js.loadFace({"glyphs":{"¦":{"x_min":288,"x_max":409,"ha":694,"o":"m 288 277 l 409 277 l 409 -237 l 288 -237 l 288 277 m 288 971 l 409 971 l 409 457 l 288 457 l 288 971 "},"Ž":{"x_min":20,"x_max":639,"ha":660,"o":"m 639 0 l 20 0 l 20 170 l 409 804 l 48 804 l 48 987 l 629 987 l 629 829 l 232 183 l 639 183 l 639 0 m 129 1317 l 216 1317 l 330 1174 l 443 1317 l 532 1317 l 404 1080 l 256 1080 l 129 1317 "},"Á":{"x_min":-52,"x_max":876,"ha":836,"o":"m 527 390 l 410 707 l 291 390 l 527 390 m 225 207 l 148 0 l -52 0 l 331 987 l 498 987 l 876 0 l 669 0 l 591 207 l 225 207 m 319 1080 l 457 1316 l 608 1316 l 407 1080 l 319 1080 "},"Î":{"x_min":-21,"x_max":382,"ha":359,"o":"m 83 0 l 83 987 l 276 987 l 276 0 l 83 0 m -21 1080 l 106 1317 l 254 1317 l 382 1080 l 293 1080 l 180 1222 l 66 1080 l -21 1080 "},"e":{"x_min":33,"x_max":811.359375,"ha":842,"o":"m 624 456 q 548 569 601 530 q 416 608 496 608 q 292 566 347 608 q 218 456 237 524 l 624 456 m 212 318 q 276 190 220 237 q 419 144 331 144 q 524 168 477 144 q 598 237 570 192 l 785 237 q 642 47 737 114 q 423 -20 548 -20 q 270 9 340 -20 q 144 96 199 39 q 62 223 91 151 q 33 371 33 296 q 59 518 33 449 q 138 642 86 587 q 267 735 195 702 q 416 768 339 768 q 597 723 513 768 q 740 599 681 679 q 794 492 776 551 q 811 355 811 432 q 810 336 811 349 q 810 318 810 324 l 212 318 "},"»":{"x_min":103,"x_max":668,"ha":755,"o":"m 366 590 l 500 590 l 668 372 l 500 155 l 366 155 l 532 372 l 366 590 m 103 590 l 237 590 l 405 372 l 237 155 l 103 155 l 268 372 l 103 590 "},"∆":{"x_min":-3,"x_max":948,"ha":946,"o":"m 472 811 l 216 144 l 728 144 l 472 811 m 385 999 l 559 999 l 948 0 l -3 0 l 385 999 "},"ò":{"x_min":32,"x_max":814,"ha":846,"o":"m 211 377 q 268 212 211 273 q 422 152 325 152 q 576 214 519 152 q 634 381 634 276 q 573 536 634 475 q 422 597 513 597 q 270 535 329 597 q 211 377 211 474 m 32 376 q 60 525 32 454 q 144 651 89 596 q 271 737 200 707 q 417 768 341 768 q 566 741 498 768 q 691 660 634 714 q 782 530 750 604 q 814 380 814 457 q 786 224 814 294 q 702 96 758 153 q 575 9 647 39 q 421 -20 504 -20 q 268 9 337 -20 q 141 99 198 39 q 59 227 87 157 q 32 376 32 298 m 524 843 l 435 843 l 235 1079 l 385 1079 l 524 843 "},"^":{"x_min":283,"x_max":1104,"ha":1389,"o":"m 620 990 l 768 990 l 1104 610 l 963 610 l 694 878 l 423 610 l 283 610 l 620 990 "},"«":{"x_min":86,"x_max":651,"ha":755,"o":"m 651 590 l 485 372 l 651 155 l 516 155 l 349 372 l 516 590 l 651 590 m 388 590 l 221 372 l 388 155 l 253 155 l 86 372 l 253 590 l 388 590 "},"∙":{"x_min":109,"x_max":295,"ha":404,"o":"m 109 493 q 136 558 109 532 q 202 585 163 585 q 267 558 240 585 q 295 493 295 532 q 267 428 295 455 q 202 401 240 401 q 136 427 163 401 q 109 493 109 454 "},"í":{"x_min":64,"x_max":353,"ha":325,"o":"m 78 0 l 78 746 l 248 746 l 248 0 l 78 0 m 64 843 l 202 1079 l 353 1079 l 152 843 l 64 843 "},"ˆ":{"x_min":146,"x_max":549,"ha":694,"o":"m 146 843 l 273 1080 l 421 1080 l 549 843 l 460 843 l 347 985 l 233 843 l 146 843 "},"µ":{"x_min":-62,"x_max":759,"ha":819,"o":"m 139 733 l 294 733 l 209 302 q 203 265 205 283 q 201 232 201 248 q 233 133 201 167 q 325 99 264 99 q 456 158 408 99 q 532 357 505 218 l 606 733 l 759 733 l 660 232 q 650 177 653 199 q 647 142 647 155 q 658 107 647 117 q 693 97 668 97 q 707 97 702 97 q 716 99 712 98 l 695 -9 q 648 -17 673 -15 q 593 -20 623 -20 q 517 0 543 -20 q 492 64 492 22 l 492 74 q 418 3 464 28 q 319 -22 373 -22 q 226 -4 264 -22 q 160 52 188 13 l 93 -292 l -62 -292 l 139 733 "},"č":{"x_min":33,"x_max":799,"ha":842,"o":"m 614 480 q 534 567 582 538 q 419 597 485 597 q 271 533 330 597 q 212 373 212 469 q 272 215 212 278 q 425 152 333 152 q 542 182 496 152 q 613 273 589 212 l 798 273 q 665 58 764 136 q 426 -20 567 -20 q 273 9 343 -20 q 145 96 202 39 q 62 223 92 150 q 33 371 33 296 q 60 519 33 450 q 140 642 87 587 q 271 736 198 704 q 429 768 345 768 q 666 689 566 768 q 799 480 767 611 l 614 480 m 227 1080 l 314 1080 l 428 937 l 541 1080 l 630 1080 l 502 843 l 354 843 l 227 1080 "},"’":{"x_min":85,"x_max":259,"ha":330,"o":"m 259 987 l 259 809 q 217 668 259 713 q 85 622 176 624 l 85 722 q 130 740 117 726 q 144 788 144 755 l 144 800 l 85 800 l 85 987 l 259 987 "},"-":{"x_min":61,"x_max":411,"ha":472,"o":"m 411 453 l 411 293 l 61 293 l 61 453 l 411 453 "},"Q":{"x_min":39,"x_max":1068,"ha":1093,"o":"m 778 301 q 831 387 813 339 q 849 494 849 435 q 760 720 849 628 q 543 812 672 812 q 328 718 417 812 q 240 497 240 625 q 242 472 240 485 q 248 446 244 460 q 311 461 281 456 q 373 467 342 467 q 580 426 481 467 q 778 301 678 386 m 297 315 q 407 216 342 251 q 548 182 471 182 q 607 188 577 182 q 668 207 637 194 q 505 292 582 264 q 354 320 427 320 q 325 318 340 320 q 297 315 311 317 m 803 54 q 679 -1 746 17 q 538 -21 612 -21 q 376 7 455 -21 q 229 90 298 35 q 87 269 136 164 q 39 499 39 375 q 79 695 39 602 q 195 863 119 787 q 354 970 266 934 q 544 1007 443 1007 q 738 970 648 1007 q 900 862 828 934 q 1015 693 977 787 q 1054 489 1054 600 q 1023 311 1054 392 q 932 167 993 231 q 987 148 959 154 q 1047 141 1016 141 l 1068 141 l 1068 -15 q 1055 -16 1063 -15 q 1042 -16 1047 -16 q 924 1 984 -16 q 803 54 864 19 "},"M":{"x_min":82,"x_max":1095,"ha":1177,"o":"m 273 0 l 82 0 l 82 987 l 337 987 l 588 269 l 838 987 l 1095 987 l 1095 0 l 904 0 l 910 716 l 661 0 l 515 0 l 264 716 l 273 0 "},"œ":{"x_min":33,"x_max":1410,"ha":1440,"o":"m 1408 316 l 812 316 q 875 189 819 236 q 1019 143 930 143 q 1121 166 1076 143 q 1195 234 1167 190 l 1383 234 q 1240 44 1334 111 q 1021 -22 1146 -22 q 849 13 926 -22 q 720 119 773 49 q 587 15 660 49 q 420 -18 513 -18 q 267 11 336 -18 q 141 101 199 40 q 60 229 88 158 q 33 377 33 299 q 61 525 33 455 q 145 649 90 594 q 274 737 202 707 q 426 768 345 768 q 589 732 515 768 q 723 625 663 696 q 860 732 787 696 q 1015 768 933 768 q 1195 723 1111 768 q 1338 599 1280 679 q 1392 491 1374 551 q 1410 353 1410 430 q 1409 334 1410 347 q 1408 316 1408 322 m 1222 454 q 1147 567 1200 528 q 1014 607 1094 607 q 891 565 945 607 q 817 454 837 523 l 1222 454 m 211 377 q 268 214 211 274 q 422 154 325 154 q 575 216 518 154 q 632 383 632 278 q 572 536 632 476 q 422 596 512 596 q 269 534 328 596 q 211 377 211 473 "},"{":{"x_min":110,"x_max":593,"ha":694,"o":"m 593 1002 l 593 881 q 576 881 587 881 q 561 882 565 882 q 461 854 487 882 q 435 736 435 826 l 435 573 q 405 423 435 468 q 297 360 375 379 q 404 297 374 342 q 435 148 435 253 l 435 -13 q 461 -131 435 -102 q 562 -160 488 -160 q 577 -159 567 -160 q 593 -159 587 -159 l 593 -280 l 550 -280 q 438 -271 481 -280 q 365 -246 395 -263 q 311 -181 327 -223 q 296 -42 296 -138 l 296 125 q 260 262 296 222 q 139 302 224 302 q 124 301 134 302 q 110 301 114 301 l 110 422 q 124 420 114 422 q 139 419 134 419 q 260 459 224 419 q 296 596 296 499 l 296 764 q 311 904 296 862 q 365 968 327 945 q 439 994 395 986 q 562 1002 483 1002 l 593 1002 "},"¼":{"x_min":107,"x_max":1210,"ha":1249,"o":"m 1051 177 l 1051 406 l 886 177 l 1051 177 m 1158 0 l 1051 0 l 1051 84 l 778 84 l 778 177 l 1046 553 l 1158 553 l 1158 177 l 1210 177 l 1210 84 l 1158 84 l 1158 0 m 872 1007 l 971 1007 l 378 -21 l 277 -21 l 872 1007 m 332 434 l 215 434 l 215 905 l 107 905 l 107 987 l 332 987 l 332 434 "},"#":{"x_min":47,"x_max":1020,"ha":1068,"o":"m 480 578 l 418 405 l 592 405 l 653 578 l 480 578 m 497 990 l 627 990 l 522 695 l 692 695 l 798 990 l 927 990 l 822 695 l 1020 695 l 980 578 l 781 578 l 720 407 l 929 407 l 888 290 l 680 290 l 574 -4 l 445 -4 l 550 290 l 379 290 l 272 -4 l 143 -4 l 249 290 l 47 290 l 88 407 l 289 407 l 350 578 l 137 578 l 178 695 l 392 695 l 497 990 "},"Ê":{"x_min":82,"x_max":615,"ha":694,"o":"m 615 0 l 82 0 l 82 987 l 615 987 l 615 813 l 273 813 l 273 588 l 615 588 l 615 417 l 273 417 l 273 174 l 615 174 l 615 0 m 146 1080 l 273 1317 l 421 1317 l 549 1080 l 460 1080 l 347 1222 l 233 1080 l 146 1080 "},")":{"x_min":54,"x_max":347,"ha":411,"o":"m 54 1007 q 273 851 199 956 q 347 592 347 747 l 347 113 q 273 -145 347 -40 q 54 -300 199 -249 l 54 -112 q 141 -14 115 -72 q 167 157 167 43 l 167 548 q 141 721 167 663 q 54 819 115 779 l 54 1007 "},"Å":{"x_min":-52,"x_max":876,"ha":836,"o":"m 259 1172 q 304 1282 259 1237 q 414 1328 349 1328 q 524 1282 479 1328 q 570 1172 570 1237 q 524 1063 570 1108 q 414 1018 479 1018 q 304 1063 349 1018 q 259 1172 259 1108 m 342 1172 q 363 1121 342 1142 q 414 1100 384 1100 q 465 1121 444 1100 q 487 1172 487 1142 q 465 1224 487 1202 q 414 1246 444 1246 q 363 1224 384 1246 q 342 1172 342 1202 m 526 390 l 410 707 l 290 390 l 526 390 m 224 207 l 148 0 l -52 0 l 330 979 l 497 979 l 876 0 l 668 0 l 590 207 l 224 207 "},"¸":{"x_min":170,"x_max":523,"ha":694,"o":"m 170 -293 l 170 -212 q 269 -234 226 -227 q 342 -242 312 -242 q 397 -229 378 -242 q 416 -191 416 -216 q 393 -149 416 -162 q 320 -137 370 -137 q 305 -137 315 -137 q 291 -138 295 -138 l 291 0 l 353 0 l 353 -63 l 363 -63 q 483 -95 443 -63 q 523 -194 523 -128 q 478 -289 523 -255 q 353 -323 434 -323 q 269 -315 315 -323 q 170 -293 222 -308 "},"a":{"x_min":32,"x_max":819,"ha":895,"o":"m 210 379 q 272 221 210 284 q 425 158 335 158 q 569 221 506 158 q 631 371 631 285 q 568 527 631 462 q 422 593 506 593 q 272 530 334 593 q 210 379 210 468 m 651 0 l 651 91 q 563 9 619 35 q 418 -17 506 -17 q 142 95 253 -17 q 32 376 32 208 q 59 525 32 455 q 139 649 87 596 q 262 736 194 708 q 414 765 329 765 q 554 737 495 765 q 648 655 613 710 l 648 746 l 819 746 l 819 0 l 651 0 "},"=":{"x_min":172,"x_max":984,"ha":1157,"o":"m 172 330 l 984 330 l 984 218 l 172 218 l 172 330 m 172 611 l 984 611 l 984 497 l 172 497 l 172 611 "},"˚":{"x_min":174,"x_max":523,"ha":694,"o":"m 261 1003 q 286 941 261 966 q 349 916 312 916 q 411 941 386 916 q 436 1003 436 966 q 410 1066 436 1040 q 349 1092 385 1092 q 286 1065 312 1092 q 261 1003 261 1039 m 174 1005 q 224 1128 174 1077 q 347 1179 274 1179 q 472 1128 421 1179 q 523 1005 523 1077 q 472 879 523 930 q 347 829 421 829 q 224 879 274 829 q 174 1005 174 930 "},"ú":{"x_min":72,"x_max":735,"ha":810,"o":"m 562 0 l 562 80 q 475 4 524 29 q 363 -20 426 -20 q 147 66 222 -20 q 72 313 72 152 l 72 746 l 248 746 l 248 410 q 282 203 248 259 q 401 148 317 148 q 526 210 488 148 q 564 422 564 272 l 564 746 l 735 746 l 735 0 l 562 0 m 306 843 l 444 1079 l 595 1079 l 394 843 l 306 843 "},"¯":{"x_min":160,"x_max":534,"ha":694,"o":"m 160 911 l 160 1011 l 534 1011 l 534 911 l 160 911 "},"Z":{"x_min":20,"x_max":639,"ha":660,"o":"m 639 0 l 20 0 l 20 170 l 409 804 l 48 804 l 48 987 l 629 987 l 629 829 l 232 183 l 639 183 l 639 0 "},"u":{"x_min":72,"x_max":735,"ha":810,"o":"m 562 0 l 562 80 q 475 4 524 29 q 363 -20 426 -20 q 147 66 222 -20 q 72 313 72 152 l 72 746 l 248 746 l 248 410 q 282 203 248 259 q 401 148 317 148 q 526 210 488 148 q 564 422 564 272 l 564 746 l 735 746 l 735 0 l 562 0 "},"k":{"x_min":77,"x_max":733,"ha":688,"o":"m 245 0 l 77 0 l 77 987 l 245 987 l 245 400 l 486 746 l 682 746 l 424 391 l 733 0 l 515 0 l 245 379 l 245 0 "},"Ù":{"x_min":82,"x_max":718,"ha":800,"o":"m 82 987 l 275 987 l 275 417 q 303 231 275 283 q 400 180 331 180 q 496 231 468 180 q 525 417 525 283 l 525 987 l 718 987 l 718 360 q 706 203 718 255 q 667 112 694 151 q 556 12 621 44 q 400 -20 491 -20 q 243 12 308 -20 q 132 112 178 44 q 93 200 105 151 q 82 360 82 249 l 82 987 m 500 1080 l 411 1080 l 211 1316 l 361 1316 l 500 1080 "},"¢":{"x_min":47,"x_max":759,"ha":807,"o":"m 580 595 q 512 688 556 656 q 406 721 468 721 q 275 654 329 721 q 222 489 222 588 q 276 324 222 389 q 412 259 330 259 q 513 292 469 259 q 579 389 556 326 l 758 389 q 665 204 734 277 q 486 100 596 131 l 486 -55 l 335 -55 l 335 102 q 125 244 204 137 q 47 490 47 351 q 124 735 47 632 q 335 876 201 839 l 335 1023 l 486 1023 l 486 879 q 665 782 596 855 q 759 595 735 710 l 580 595 "},"Ş":{"x_min":22,"x_max":629,"ha":665,"o":"m 22 306 l 198 306 l 198 292 q 230 192 198 230 q 317 155 263 155 q 410 189 376 155 q 444 284 444 224 q 306 421 444 380 q 279 430 289 426 q 108 532 164 466 q 53 699 53 598 q 129 922 53 838 q 334 1007 206 1007 q 525 932 454 1007 q 605 722 596 857 l 430 722 l 430 730 q 401 806 430 777 q 327 836 373 836 q 252 806 279 836 q 225 724 225 776 q 230 686 225 703 q 248 656 236 669 q 368 599 276 625 q 430 581 408 589 q 580 482 532 546 q 629 317 629 418 q 544 72 629 165 q 319 -20 459 -20 q 105 69 186 -20 q 22 306 24 158 m 156 -293 l 156 -212 q 255 -234 212 -227 q 328 -242 298 -242 q 383 -229 364 -242 q 402 -191 402 -216 q 379 -149 402 -162 q 306 -137 356 -137 q 291 -137 301 -137 q 277 -138 281 -138 l 277 0 l 339 0 l 339 -63 l 349 -63 q 469 -95 429 -63 q 509 -194 509 -128 q 464 -289 509 -255 q 339 -323 420 -323 q 255 -315 301 -323 q 156 -293 208 -308 "},"é":{"x_min":33,"x_max":811.359375,"ha":842,"o":"m 624 456 q 548 569 601 530 q 416 608 496 608 q 292 566 347 608 q 218 456 237 524 l 624 456 m 212 318 q 276 190 220 237 q 419 144 331 144 q 524 168 477 144 q 598 237 570 192 l 785 237 q 642 47 737 114 q 423 -20 548 -20 q 270 9 340 -20 q 144 96 199 39 q 62 223 91 151 q 33 371 33 296 q 59 518 33 449 q 138 642 86 587 q 267 735 195 702 q 416 768 339 768 q 597 723 513 768 q 740 599 681 679 q 794 492 776 551 q 811 355 811 432 q 810 336 811 349 q 810 318 810 324 l 212 318 m 322 843 l 460 1079 l 611 1079 l 410 843 l 322 843 "},"B":{"x_min":86,"x_max":692,"ha":714,"o":"m 272 589 l 294 589 q 413 617 374 589 q 453 704 453 646 q 415 786 453 760 q 299 813 378 813 l 272 813 l 272 589 m 272 174 l 330 174 q 459 203 418 174 q 501 294 501 232 q 457 395 501 361 q 330 430 414 430 l 272 430 l 272 174 m 86 0 l 86 987 l 298 987 q 400 981 362 987 q 467 964 438 976 q 592 868 549 931 q 636 722 636 806 q 610 604 636 653 q 534 530 584 555 q 649 447 607 509 q 692 300 692 385 q 666 170 692 231 q 594 70 640 110 q 493 16 549 32 q 333 0 436 0 l 86 0 "},"…":{"x_min":144,"x_max":1245,"ha":1389,"o":"m 318 0 l 144 0 l 144 186 l 318 186 l 318 0 m 781 0 l 607 0 l 607 186 l 781 186 l 781 0 m 1245 0 l 1071 0 l 1071 186 l 1245 186 l 1245 0 "},"H":{"x_min":82,"x_max":786,"ha":868,"o":"m 275 401 l 275 0 l 82 0 l 82 987 l 275 987 l 275 587 l 593 587 l 593 987 l 786 987 l 786 0 l 593 0 l 593 401 l 275 401 "},"î":{"x_min":-38,"x_max":365,"ha":325,"o":"m 78 0 l 78 746 l 248 746 l 248 0 l 78 0 m -38 843 l 89 1080 l 237 1080 l 365 843 l 276 843 l 163 985 l 49 843 l -38 843 "},"−":{"x_min":172,"x_max":984,"ha":1157,"o":"m 172 472 l 984 472 l 984 357 l 172 357 l 172 472 "},"≠":{"x_min":172,"x_max":984,"ha":1157,"o":"m 815 822 l 899 754 l 784 609 l 984 609 l 984 499 l 710 499 l 577 329 l 984 329 l 984 220 l 504 220 l 336 6 l 252 74 l 367 220 l 172 220 l 172 329 l 438 329 l 573 499 l 172 499 l 172 609 l 646 609 l 815 822 "},"¥":{"x_min":24.671875,"x_max":781.375,"ha":807,"o":"m 781 982 l 659 715 l 759 715 l 759 596 l 603 596 l 550 482 l 759 482 l 759 363 l 494 363 l 494 0 l 308 0 l 308 363 l 42 363 l 42 482 l 251 482 l 199 596 l 42 596 l 42 715 l 145 715 l 24 982 l 224 982 l 403 549 l 582 982 l 781 982 "},"U":{"x_min":82,"x_max":718,"ha":800,"o":"m 82 987 l 275 987 l 275 417 q 303 231 275 283 q 400 180 331 180 q 496 231 468 180 q 525 417 525 283 l 525 987 l 718 987 l 718 360 q 706 203 718 255 q 667 112 694 151 q 556 12 621 44 q 400 -20 491 -20 q 243 12 308 -20 q 132 112 178 44 q 93 200 105 151 q 82 360 82 249 l 82 987 "},"Ñ":{"x_min":82,"x_max":863,"ha":946,"o":"m 272 0 l 82 0 l 82 987 l 265 987 l 674 356 l 674 987 l 863 987 l 863 0 l 683 0 l 272 649 l 272 0 m 677 1279 q 628 1162 661 1199 q 542 1126 596 1126 q 517 1127 529 1126 q 495 1131 505 1128 l 438 1148 q 433 1149 436 1148 q 395 1157 405 1157 q 358 1145 372 1157 q 336 1110 344 1134 l 269 1110 q 314 1221 282 1185 q 399 1258 346 1258 q 425 1255 411 1258 q 456 1249 439 1253 l 516 1232 q 537 1228 529 1229 q 550 1227 544 1227 q 587 1241 571 1227 q 609 1279 603 1255 l 677 1279 "},"F":{"x_min":82,"x_max":615,"ha":668,"o":"m 82 0 l 82 987 l 615 987 l 615 813 l 273 813 l 273 588 l 615 588 l 615 417 l 273 417 l 273 0 l 82 0 "},"*":{"x_min":64,"x_max":629,"ha":694,"o":"m 346 614 l 225 444 l 126 512 l 258 680 l 64 733 l 99 849 l 288 786 l 288 987 l 405 987 l 405 786 l 587 849 l 629 733 l 435 681 l 562 512 l 466 441 l 346 614 "},"†":{"x_min":40,"x_max":655,"ha":694,"o":"m 267 -158 l 267 568 l 40 568 l 40 695 l 267 695 l 267 987 l 428 987 l 428 695 l 655 695 l 655 568 l 428 568 l 428 -158 l 267 -158 "},"∕":{"x_min":-232,"x_max":462,"ha":232,"o":"m 363 1007 l 462 1007 l -130 -21 l -232 -21 l 363 1007 "},"°":{"x_min":29,"x_max":429,"ha":457,"o":"m 229 915 q 140 878 177 915 q 103 789 103 841 q 140 701 103 738 q 229 664 177 664 q 318 700 282 664 q 355 789 355 737 q 318 878 355 841 q 229 915 282 915 m 229 990 q 370 931 311 990 q 429 788 429 872 q 370 647 429 706 q 227 589 311 589 q 86 646 144 589 q 29 788 29 704 q 87 931 29 873 q 229 990 145 990 "},"å":{"x_min":32,"x_max":819,"ha":895,"o":"m 348 959 q 369 907 348 929 q 420 886 390 886 q 471 907 450 886 q 493 959 493 929 q 471 1011 493 990 q 420 1033 450 1033 q 369 1011 390 1033 q 348 959 348 990 m 265 959 q 310 1069 265 1023 q 420 1115 355 1115 q 530 1069 485 1115 q 576 959 576 1023 q 530 849 576 894 q 420 804 485 804 q 310 849 355 804 q 265 959 265 894 m 651 0 l 651 91 q 563 9 619 35 q 418 -17 506 -17 q 142 95 253 -17 q 32 376 32 208 q 59 525 32 455 q 139 649 87 596 q 262 736 194 708 q 414 765 329 765 q 554 737 495 765 q 648 655 613 710 l 648 746 l 819 746 l 819 0 l 651 0 m 210 379 q 272 221 210 284 q 425 158 335 158 q 569 221 506 158 q 631 371 631 285 q 568 527 631 462 q 422 593 506 593 q 272 530 334 593 q 210 379 210 468 "},"0":{"x_min":58,"x_max":748,"ha":807,"o":"m 251 642 l 251 345 q 287 202 251 249 q 402 156 324 156 q 517 203 480 156 q 555 350 555 251 l 555 657 q 551 720 555 699 q 538 756 547 741 q 482 811 517 792 q 403 831 447 831 q 289 783 327 831 q 251 642 251 736 m 58 641 q 72 783 58 733 q 119 874 86 833 q 240 974 169 941 q 403 1007 310 1007 q 563 972 490 1007 q 689 872 636 938 q 734 779 720 834 q 748 638 748 725 l 748 345 q 733 202 748 253 q 687 110 719 152 q 566 12 636 44 q 402 -20 495 -20 q 242 14 315 -20 q 116 114 169 48 q 71 206 85 152 q 58 346 58 260 l 58 641 "},"":{"x_min":77,"x_max":1021,"ha":1097,"o":"m 567 824 q 566 834 566 828 q 565 849 565 839 q 630 1005 565 934 q 790 1094 694 1077 q 791 1079 791 1087 q 791 1052 791 1070 q 721 893 791 963 q 583 823 651 823 l 578 823 q 573 824 576 823 q 567 824 570 824 m 1021 273 q 881 40 943 105 q 743 -24 820 -24 q 654 -1 709 -24 q 571 20 599 20 q 482 -1 540 20 q 396 -24 424 -24 q 309 5 353 -24 q 221 95 265 35 q 114 295 152 190 q 77 499 77 401 q 161 741 77 648 q 380 835 246 835 q 485 811 426 835 q 569 788 544 788 q 652 812 592 788 q 755 836 711 836 q 889 809 830 836 q 999 725 949 782 q 896 626 929 680 q 863 502 863 571 q 903 366 863 425 q 1021 273 944 307 "},"”":{"x_min":84,"x_max":515,"ha":589,"o":"m 258 987 l 258 809 q 216 668 258 713 q 84 622 175 624 l 84 722 q 129 742 115 726 q 143 789 143 757 l 143 800 l 84 800 l 84 987 l 258 987 m 515 987 l 515 809 q 473 668 515 713 q 341 622 432 624 l 341 722 q 386 742 372 726 q 400 789 400 757 l 400 800 l 341 800 l 341 987 l 515 987 "},"ö":{"x_min":32,"x_max":814,"ha":846,"o":"m 211 377 q 268 212 211 273 q 422 152 325 152 q 576 214 519 152 q 634 381 634 276 q 573 536 634 475 q 422 597 513 597 q 270 535 329 597 q 211 377 211 474 m 32 376 q 60 525 32 454 q 144 651 89 596 q 271 737 200 707 q 417 768 341 768 q 566 741 498 768 q 691 660 634 714 q 782 530 750 604 q 814 380 814 457 q 786 224 814 294 q 702 96 758 153 q 575 9 647 39 q 421 -20 504 -20 q 268 9 337 -20 q 141 99 198 39 q 59 227 87 157 q 32 376 32 298 m 473 878 l 473 1033 l 612 1033 l 612 878 l 473 878 m 236 878 l 236 1033 l 375 1033 l 375 878 l 236 878 "},"Õ":{"x_min":39,"x_max":1054,"ha":1093,"o":"m 242 502 q 263 383 242 438 q 325 283 284 328 q 428 206 370 233 q 547 180 486 180 q 765 272 677 180 q 853 502 853 364 q 764 717 853 628 q 551 807 676 807 q 332 718 422 807 q 242 502 242 629 m 39 495 q 60 649 39 576 q 125 784 82 721 q 308 949 198 891 q 550 1007 419 1007 q 739 969 648 1007 q 902 859 830 931 q 1015 693 976 785 q 1054 499 1054 601 q 1017 300 1054 393 q 910 136 981 207 q 745 20 839 60 q 547 -20 650 -20 q 344 19 437 -20 q 179 136 251 58 q 74 300 110 209 q 39 495 39 391 m 751 1279 q 702 1162 735 1199 q 616 1126 670 1126 q 591 1127 603 1126 q 569 1131 579 1128 l 512 1148 q 507 1149 510 1148 q 469 1157 479 1157 q 432 1145 446 1157 q 410 1110 418 1134 l 343 1110 q 388 1221 356 1185 q 473 1258 420 1258 q 499 1255 485 1258 q 530 1249 513 1253 l 590 1232 q 611 1228 603 1229 q 624 1227 618 1227 q 661 1241 645 1227 q 683 1279 677 1255 l 751 1279 "},"ć":{"x_min":33,"x_max":799,"ha":842,"o":"m 614 480 q 534 567 582 538 q 419 597 485 597 q 271 533 330 597 q 212 373 212 469 q 272 215 212 278 q 425 152 333 152 q 542 182 496 152 q 613 273 589 212 l 798 273 q 665 58 764 136 q 426 -20 567 -20 q 273 9 343 -20 q 145 96 202 39 q 62 223 92 150 q 33 371 33 296 q 60 519 33 450 q 140 642 87 587 q 271 736 198 704 q 429 768 345 768 q 666 689 566 768 q 799 480 767 611 l 614 480 m 329 843 l 467 1079 l 618 1079 l 417 843 l 329 843 "},"þ":{"x_min":65,"x_max":852,"ha":895,"o":"m 236 59 l 236 -241 l 65 -241 l 65 987 l 236 987 l 236 683 q 345 745 288 725 q 467 765 402 765 q 600 742 538 765 q 712 677 662 720 q 815 539 779 619 q 852 370 852 460 q 819 212 852 288 q 725 80 786 136 q 608 5 674 31 q 469 -20 542 -20 q 340 0 396 -20 q 236 59 284 18 m 242 376 q 304 216 242 280 q 456 152 366 152 q 609 217 546 152 q 673 373 673 282 q 609 530 673 467 q 448 593 545 593 q 303 529 364 593 q 242 376 242 466 "},"]":{"x_min":32,"x_max":335,"ha":411,"o":"m 161 833 l 32 833 l 32 987 l 335 987 l 335 -278 l 32 -278 l 32 -124 l 161 -124 l 161 833 "},"8":{"x_min":74,"x_max":733,"ha":807,"o":"m 311 739 q 336 669 311 696 q 402 643 362 643 q 471 669 446 643 q 496 741 496 695 q 470 812 496 785 q 404 840 444 840 q 337 811 363 840 q 311 739 311 783 m 267 293 q 305 191 267 232 q 400 151 344 151 q 499 191 460 151 q 539 294 539 232 q 501 399 539 360 q 398 438 463 438 q 302 398 338 438 q 267 293 267 359 m 230 551 q 148 635 177 584 q 119 746 119 685 q 201 930 119 853 q 400 1007 283 1007 q 605 931 523 1007 q 688 744 688 855 q 658 633 688 682 q 572 551 629 584 q 693 448 653 510 q 733 301 733 386 q 639 69 733 159 q 398 -20 546 -20 q 166 71 259 -20 q 74 301 74 163 q 112 442 74 381 q 230 551 150 503 "},"R":{"x_min":82,"x_max":761.203125,"ha":790,"o":"m 275 507 l 317 507 q 496 549 435 507 q 557 672 557 591 q 506 788 557 751 q 346 826 455 826 l 275 826 l 275 507 m 275 0 l 82 0 l 82 987 l 316 987 q 483 979 428 987 q 576 953 537 971 q 704 843 660 914 q 749 678 749 773 q 685 484 749 564 q 514 383 622 404 l 761 0 l 530 0 l 275 458 l 275 0 "},"o":{"x_min":32,"x_max":814,"ha":846,"o":"m 211 377 q 268 212 211 273 q 422 152 325 152 q 576 214 519 152 q 634 381 634 276 q 573 536 634 475 q 422 597 513 597 q 270 535 329 597 q 211 377 211 474 m 32 376 q 60 525 32 454 q 144 651 89 596 q 271 737 200 707 q 417 768 341 768 q 566 741 498 768 q 691 660 634 714 q 782 530 750 604 q 814 380 814 457 q 786 224 814 294 q 702 96 758 153 q 575 9 647 39 q 421 -20 504 -20 q 268 9 337 -20 q 141 99 198 39 q 59 227 87 157 q 32 376 32 298 "},"5":{"x_min":47,"x_max":746,"ha":807,"o":"m 652 987 l 652 816 l 312 816 l 281 646 q 346 673 312 664 q 417 682 379 682 q 649 580 553 682 q 746 334 746 478 q 723 210 746 269 q 657 101 700 151 q 538 9 604 40 q 393 -21 471 -21 q 155 70 252 -21 q 47 307 59 161 l 233 307 q 285 199 241 240 q 391 158 329 158 q 504 208 459 158 q 550 336 550 258 q 504 459 550 412 q 384 507 458 507 q 307 489 339 507 q 255 435 274 471 l 91 473 l 185 987 l 652 987 "},"õ":{"x_min":32,"x_max":814,"ha":846,"o":"m 211 377 q 268 212 211 273 q 422 152 325 152 q 576 214 519 152 q 634 381 634 276 q 573 536 634 475 q 422 597 513 597 q 270 535 329 597 q 211 377 211 474 m 32 376 q 60 525 32 454 q 144 651 89 596 q 271 737 200 707 q 417 768 341 768 q 566 741 498 768 q 691 660 634 714 q 782 530 750 604 q 814 380 814 457 q 786 224 814 294 q 702 96 758 153 q 575 9 647 39 q 421 -20 504 -20 q 268 9 337 -20 q 141 99 198 39 q 59 227 87 157 q 32 376 32 298 m 628 1042 q 579 925 612 962 q 493 889 547 889 q 468 890 480 889 q 446 894 456 891 l 389 911 q 384 912 387 911 q 346 920 356 920 q 309 908 323 920 q 287 873 295 897 l 220 873 q 265 984 233 948 q 350 1021 297 1021 q 376 1018 362 1021 q 407 1012 390 1016 l 467 995 q 488 991 480 992 q 501 990 495 990 q 538 1004 522 990 q 560 1042 554 1018 l 628 1042 "},",":{"x_min":115,"x_max":289,"ha":404,"o":"m 289 186 l 289 9 q 247 -131 289 -86 q 115 -178 205 -175 l 115 -78 q 159 -57 146 -73 q 172 -6 172 -42 l 172 0 l 115 0 l 115 186 l 289 186 "},"d":{"x_min":40,"x_max":828,"ha":895,"o":"m 649 369 q 588 529 649 465 q 437 593 528 593 q 284 527 347 593 q 221 372 221 462 q 284 214 221 277 q 445 152 348 152 q 590 215 530 152 q 649 369 649 278 m 657 686 l 657 987 l 828 987 l 828 0 l 657 0 l 657 60 q 548 0 605 20 q 425 -20 491 -20 q 292 2 354 -20 q 180 67 229 24 q 76 205 112 125 q 40 375 40 285 q 73 533 40 457 q 168 665 107 609 q 284 738 219 713 q 425 764 350 764 q 552 745 496 764 q 657 686 608 726 "},"\"":{"x_min":59,"x_max":379,"ha":436,"o":"m 268 974 l 379 974 l 379 596 l 268 596 l 268 974 m 59 974 l 170 974 l 170 596 l 59 596 l 59 974 "},"˙":{"x_min":275,"x_max":421,"ha":694,"o":"m 275 872 l 275 1035 l 421 1035 l 421 872 l 275 872 "},"ê":{"x_min":33,"x_max":811.359375,"ha":842,"o":"m 624 456 q 548 569 601 530 q 416 608 496 608 q 292 566 347 608 q 218 456 237 524 l 624 456 m 212 318 q 276 190 220 237 q 419 144 331 144 q 524 168 477 144 q 598 237 570 192 l 785 237 q 642 47 737 114 q 423 -20 548 -20 q 270 9 340 -20 q 144 96 199 39 q 62 223 91 151 q 33 371 33 296 q 59 518 33 449 q 138 642 86 587 q 267 735 195 702 q 416 768 339 768 q 597 723 513 768 q 740 599 681 679 q 794 492 776 551 q 811 355 811 432 q 810 336 811 349 q 810 318 810 324 l 212 318 m 220 843 l 347 1080 l 495 1080 l 623 843 l 534 843 l 421 985 l 307 843 l 220 843 "},"„":{"x_min":58,"x_max":489,"ha":589,"o":"m 232 186 l 232 9 q 190 -131 232 -86 q 58 -178 148 -175 l 58 -78 q 101 -58 88 -73 q 115 -10 115 -42 l 115 0 l 58 0 l 58 186 l 232 186 m 489 186 l 489 9 q 447 -131 489 -86 q 315 -178 405 -175 l 315 -78 q 358 -58 345 -73 q 372 -10 372 -42 l 372 0 l 315 0 l 315 186 l 489 186 "},"Â":{"x_min":-52,"x_max":876,"ha":836,"o":"m 527 390 l 410 707 l 291 390 l 527 390 m 225 207 l 148 0 l -52 0 l 331 987 l 498 987 l 876 0 l 669 0 l 591 207 l 225 207 m 217 1080 l 344 1317 l 492 1317 l 620 1080 l 531 1080 l 418 1222 l 304 1080 l 217 1080 "},"Í":{"x_min":81,"x_max":370,"ha":359,"o":"m 83 0 l 83 987 l 276 987 l 276 0 l 83 0 m 81 1080 l 219 1316 l 370 1316 l 169 1080 l 81 1080 "},"´":{"x_min":248,"x_max":537,"ha":694,"o":"m 248 843 l 386 1079 l 537 1079 l 336 843 l 248 843 "},"Ú":{"x_min":82,"x_max":718,"ha":800,"o":"m 82 987 l 275 987 l 275 417 q 303 231 275 283 q 400 180 331 180 q 496 231 468 180 q 525 417 525 283 l 525 987 l 718 987 l 718 360 q 706 203 718 255 q 667 112 694 151 q 556 12 621 44 q 400 -20 491 -20 q 243 12 308 -20 q 132 112 178 44 q 93 200 105 151 q 82 360 82 249 l 82 987 m 301 1080 l 439 1316 l 590 1316 l 389 1080 l 301 1080 "},"Ý":{"x_min":-40,"x_max":724,"ha":685,"o":"m 436 355 l 436 0 l 243 0 l 243 355 l -40 987 l 172 987 l 343 561 l 512 987 l 724 987 l 436 355 m 244 1080 l 382 1316 l 533 1316 l 332 1080 l 244 1080 "},"Ω":{"x_min":47.390625,"x_max":1016.625,"ha":1064,"o":"m 809 144 l 1016 144 l 1016 0 l 609 0 l 609 154 q 772 320 717 218 q 828 559 828 423 q 745 791 828 702 q 531 881 663 881 q 317 791 398 881 q 236 551 236 701 q 292 319 236 421 q 455 154 349 216 l 455 0 l 47 0 l 47 144 l 254 144 q 110 329 156 232 q 65 548 65 427 q 194 893 65 761 q 531 1025 323 1025 q 868 894 737 1025 q 999 559 999 763 q 954 333 999 430 q 809 144 910 236 "},"Ö":{"x_min":39,"x_max":1054,"ha":1093,"o":"m 242 502 q 263 383 242 438 q 325 283 284 328 q 428 206 370 233 q 547 180 486 180 q 765 272 677 180 q 853 502 853 364 q 764 717 853 628 q 551 807 676 807 q 332 718 422 807 q 242 502 242 629 m 39 495 q 60 649 39 576 q 125 784 82 721 q 308 949 198 891 q 550 1007 419 1007 q 739 969 648 1007 q 902 859 830 931 q 1015 693 976 785 q 1054 499 1054 601 q 1017 300 1054 393 q 910 136 981 207 q 745 20 839 60 q 547 -20 650 -20 q 344 19 437 -20 q 179 136 251 58 q 74 300 110 209 q 39 495 39 391 m 596 1115 l 596 1270 l 735 1270 l 735 1115 l 596 1115 m 359 1115 l 359 1270 l 498 1270 l 498 1115 l 359 1115 "},"z":{"x_min":24,"x_max":564,"ha":585,"o":"m 24 0 l 24 160 l 357 585 l 52 585 l 52 746 l 544 746 l 544 559 l 233 167 l 564 167 l 564 0 l 24 0 "},"™":{"x_min":154,"x_max":966,"ha":1157,"o":"m 549 990 l 664 990 l 760 745 l 850 990 l 966 990 l 966 622 l 889 622 l 889 912 l 780 622 l 740 622 l 627 912 l 627 622 l 549 622 l 549 990 m 154 990 l 470 990 l 470 926 l 356 926 l 356 622 l 269 622 l 269 926 l 154 926 l 154 990 "},"ã":{"x_min":32,"x_max":819,"ha":895,"o":"m 210 379 q 272 221 210 284 q 425 158 335 158 q 569 221 506 158 q 631 371 631 285 q 568 527 631 462 q 422 593 506 593 q 272 530 334 593 q 210 379 210 468 m 651 0 l 651 91 q 563 9 619 35 q 418 -17 506 -17 q 142 95 253 -17 q 32 376 32 208 q 59 525 32 455 q 139 649 87 596 q 262 736 194 708 q 414 765 329 765 q 554 737 495 765 q 648 655 613 710 l 648 746 l 819 746 l 819 0 l 651 0 m 651 1042 q 602 925 635 962 q 516 889 570 889 q 491 890 503 889 q 469 894 479 891 l 412 911 q 407 912 410 911 q 369 920 379 920 q 332 908 346 920 q 310 873 318 897 l 243 873 q 288 984 256 948 q 373 1021 320 1021 q 399 1018 385 1021 q 430 1012 413 1016 l 490 995 q 511 991 503 992 q 524 990 518 990 q 561 1004 545 990 q 583 1042 577 1018 l 651 1042 "},"æ":{"x_min":32,"x_max":1410,"ha":1440,"o":"m 788 0 l 655 0 l 655 115 q 567 15 623 48 q 429 -17 512 -17 q 144 94 256 -17 q 32 376 32 206 q 59 524 32 454 q 139 649 86 594 q 262 736 194 708 q 415 765 330 765 q 560 733 502 765 q 655 633 618 701 l 655 746 l 788 746 l 788 633 q 890 732 829 699 q 1033 765 951 765 q 1304 650 1198 765 q 1410 351 1410 535 q 1409 334 1410 346 q 1408 317 1408 322 l 812 317 q 875 189 819 236 q 1019 143 930 143 q 1121 166 1076 143 q 1195 235 1167 190 l 1383 235 q 1238 44 1333 110 q 1016 -22 1143 -22 q 875 12 931 -22 q 788 115 818 46 l 788 0 m 1222 455 q 1147 568 1200 529 q 1014 607 1094 607 q 891 565 945 607 q 817 455 837 523 l 1222 455 m 210 379 q 272 221 210 284 q 425 158 335 158 q 569 221 507 158 q 632 371 632 285 q 569 527 632 462 q 422 593 506 593 q 272 530 334 593 q 210 379 210 468 "},"É":{"x_min":82,"x_max":615,"ha":694,"o":"m 615 0 l 82 0 l 82 987 l 615 987 l 615 813 l 273 813 l 273 588 l 615 588 l 615 417 l 273 417 l 273 174 l 615 174 l 615 0 m 248 1080 l 386 1316 l 537 1316 l 336 1080 l 248 1080 "},"~":{"x_min":121,"x_max":1038,"ha":1157,"o":"m 1038 533 l 1038 408 q 904 335 968 359 q 779 311 839 311 q 716 316 749 311 q 650 335 683 322 q 598 353 633 340 q 382 405 454 405 q 264 379 326 405 q 121 296 201 353 l 121 421 q 258 495 192 471 q 383 520 323 520 q 468 511 425 520 q 582 478 511 503 q 611 468 591 475 q 780 428 722 428 q 900 453 838 428 q 1038 533 963 479 "},"³":{"x_min":52,"x_max":481,"ha":532,"o":"m 52 584 l 174 584 l 174 579 q 198 513 174 538 q 262 489 222 489 q 333 517 306 489 q 361 589 361 545 q 331 659 361 636 q 241 683 301 683 q 232 682 238 683 q 223 682 226 682 l 223 780 q 231 779 226 780 q 239 779 237 779 q 300 793 281 779 q 319 840 319 808 q 304 881 319 866 q 263 896 289 896 q 226 881 239 896 q 212 839 213 866 l 99 839 q 146 954 99 910 q 269 999 193 999 q 386 955 338 999 q 434 851 434 911 q 418 787 434 814 q 369 740 403 760 q 453 677 426 716 q 481 580 481 637 q 467 510 481 542 q 425 446 453 477 q 354 397 391 412 q 265 383 318 383 q 108 435 165 383 q 52 581 52 487 l 52 584 "},"¡":{"x_min":125,"x_max":299,"ha":425,"o":"m 125 717 l 299 717 l 299 0 l 125 0 l 125 717 m 125 987 l 299 987 l 299 800 l 125 800 l 125 987 "},"[":{"x_min":78,"x_max":379,"ha":411,"o":"m 252 833 l 252 -124 l 379 -124 l 379 -278 l 78 -278 l 78 987 l 379 987 l 379 833 l 252 833 "},"%":{"x_min":61,"x_max":1156,"ha":1218,"o":"m 61 762 q 79 856 61 811 q 133 935 98 900 q 212 988 168 970 q 304 1007 255 1007 q 397 988 353 1007 q 476 935 442 970 q 530 856 511 900 q 549 762 549 811 q 530 669 549 713 q 476 589 511 625 q 397 537 442 555 q 304 519 353 519 q 212 537 255 519 q 133 589 168 555 q 79 669 98 625 q 61 762 61 714 m 190 761 q 223 680 190 713 q 305 648 256 648 q 387 680 354 648 q 420 761 420 713 q 386 844 420 811 q 305 878 353 878 q 223 844 256 878 q 190 761 190 811 m 817 1007 l 928 1007 l 403 -21 l 292 -21 l 817 1007 m 797 224 q 830 142 797 175 q 912 109 863 109 q 993 142 960 109 q 1027 224 1027 175 q 993 305 1027 271 q 912 339 960 339 q 830 305 863 339 q 797 224 797 271 m 668 224 q 686 317 668 273 q 739 397 704 362 q 818 449 773 431 q 912 468 862 468 q 1005 449 961 468 q 1084 397 1050 431 q 1137 317 1119 362 q 1156 224 1156 273 q 1137 130 1156 174 q 1084 51 1119 86 q 1005 -1 1050 16 q 912 -20 961 -20 q 818 -1 862 -20 q 739 51 773 16 q 686 130 704 85 q 668 224 668 174 "},"P":{"x_min":82,"x_max":693,"ha":714,"o":"m 275 546 l 325 546 q 449 580 406 546 q 493 680 493 615 q 451 780 493 747 q 324 813 409 813 l 275 813 l 275 546 m 275 0 l 82 0 l 82 987 l 327 987 q 474 976 420 987 q 562 944 528 966 q 658 835 623 902 q 693 690 693 767 q 599 463 693 548 q 346 379 505 379 l 275 379 l 275 0 "},"∏":{"x_min":104,"x_max":963,"ha":1071,"o":"m 104 999 l 963 999 l 963 -266 l 768 -266 l 768 834 l 299 834 l 299 -266 l 104 -266 l 104 999 "},"_":{"x_min":0,"x_max":694,"ha":694,"o":"m 0 -211 l 694 -211 l 694 -328 l 0 -328 l 0 -211 "},"ñ":{"x_min":78,"x_max":736,"ha":810,"o":"m 248 746 l 248 661 q 335 736 285 712 q 447 761 384 761 q 587 730 527 761 q 687 638 647 699 q 724 546 713 598 q 736 394 736 494 l 736 0 l 562 0 l 562 330 q 527 535 562 479 q 408 591 492 591 q 283 529 321 591 q 246 319 246 468 l 246 0 l 78 0 l 78 746 l 248 746 m 609 1042 q 560 925 593 962 q 474 889 528 889 q 449 890 461 889 q 427 894 437 891 l 370 911 q 365 912 368 911 q 327 920 337 920 q 290 908 304 920 q 268 873 276 897 l 201 873 q 246 984 214 948 q 331 1021 278 1021 q 357 1018 343 1021 q 388 1012 371 1016 l 448 995 q 469 991 461 992 q 482 990 476 990 q 519 1004 503 990 q 541 1042 535 1018 l 609 1042 "},"‚":{"x_min":85,"x_max":259,"ha":330,"o":"m 259 186 l 259 9 q 217 -131 259 -86 q 85 -178 175 -175 l 85 -78 q 130 -57 116 -73 q 144 -9 144 -42 l 144 0 l 85 0 l 85 186 l 259 186 "},"Æ":{"x_min":-83,"x_max":1078,"ha":1157,"o":"m 547 0 l 547 264 l 261 264 l 133 0 l -83 0 l 445 987 l 1078 987 l 1078 813 l 738 813 l 738 588 l 1078 588 l 1078 417 l 738 417 l 738 174 l 1078 174 l 1078 0 l 547 0 m 547 447 l 547 799 l 523 799 l 350 447 l 547 447 "},"₣":{"x_min":82,"x_max":1094,"ha":1086,"o":"m 82 0 l 82 987 l 615 987 l 615 813 l 273 813 l 273 588 l 615 588 l 615 417 l 273 417 l 273 0 l 82 0 m 1094 595 q 953 542 993 586 q 913 380 913 497 l 913 0 l 739 0 l 739 746 l 902 746 l 902 660 q 988 733 941 710 q 1094 757 1035 757 l 1094 595 "},"ğ":{"x_min":32,"x_max":823,"ha":895,"o":"m 668 746 l 823 746 l 823 123 q 719 -181 823 -70 q 436 -292 616 -292 q 210 -228 301 -292 q 77 -41 119 -165 l 245 -41 q 322 -119 272 -91 q 433 -148 372 -148 q 602 -80 537 -148 q 666 98 666 -12 l 666 106 q 552 26 616 53 q 411 0 487 0 q 269 25 336 0 q 151 99 202 51 q 63 225 95 152 q 32 375 32 299 q 139 654 32 544 q 411 765 246 765 q 549 738 486 765 q 668 656 613 712 l 668 746 m 204 385 q 269 222 204 288 q 430 157 334 157 q 584 223 518 157 q 651 377 651 289 q 585 540 651 473 q 429 608 520 608 q 269 543 335 608 q 204 385 204 479 m 244 1061 l 326 1060 q 358 988 328 1011 q 446 965 387 965 q 534 987 505 965 q 566 1060 562 1010 l 647 1060 q 591 913 640 961 q 446 865 542 865 q 301 912 351 865 q 244 1061 251 960 "},"ª":{"x_min":24,"x_max":615,"ha":671,"o":"m 157 731 q 204 621 157 665 q 319 577 251 577 q 427 621 380 577 q 473 725 473 665 q 426 835 473 789 q 316 881 379 881 q 204 837 251 881 q 157 731 157 793 m 489 466 l 489 529 q 423 472 465 490 q 315 455 381 455 q 107 533 190 455 q 24 729 24 612 q 44 832 24 783 q 104 921 65 882 q 197 982 146 962 q 311 1002 247 1002 q 416 982 373 1002 q 487 924 460 963 l 487 988 l 615 988 l 615 466 l 489 466 "},"Œ":{"x_min":39,"x_max":1380,"ha":1458,"o":"m 852 987 l 1380 987 l 1380 813 l 1038 813 l 1038 588 l 1380 588 l 1380 417 l 1038 417 l 1038 174 l 1380 174 l 1380 0 l 852 0 l 852 112 q 712 15 790 47 q 539 -17 634 -17 q 389 4 460 -17 q 258 69 319 26 q 95 256 151 145 q 39 503 39 367 q 77 697 39 606 q 191 860 116 788 q 353 968 264 932 q 546 1004 442 1004 q 716 971 640 1004 q 852 872 791 939 l 852 987 m 551 807 q 330 718 420 807 q 240 498 240 629 q 261 384 240 439 q 323 284 282 329 q 427 207 369 234 q 547 180 486 180 q 764 272 676 180 q 852 502 852 364 q 763 717 852 627 q 551 807 675 807 "},"T":{"x_min":8,"x_max":573,"ha":582,"o":"m 573 987 l 573 813 l 387 813 l 387 0 l 194 0 l 194 813 l 8 813 l 8 987 l 573 987 "},"š":{"x_min":32,"x_max":526,"ha":566,"o":"m 191 247 l 191 236 q 216 156 191 187 q 281 126 241 126 q 342 149 318 126 q 367 207 367 172 q 349 262 367 241 q 285 305 331 283 q 209 337 259 316 q 145 369 159 357 q 84 444 104 403 q 65 540 65 486 q 131 699 65 634 q 291 765 197 765 q 448 707 390 765 q 512 546 506 649 l 356 546 l 356 550 q 337 606 356 586 q 285 627 318 627 q 237 606 256 627 q 218 556 218 586 q 318 465 218 507 q 358 448 344 454 q 490 355 455 405 q 526 220 526 305 q 455 48 526 116 q 277 -20 385 -20 q 104 51 170 -20 q 32 246 38 123 l 191 247 m 82 1080 l 169 1080 l 283 937 l 396 1080 l 485 1080 l 357 843 l 209 843 l 82 1080 "},"Þ":{"x_min":82,"x_max":693,"ha":714,"o":"m 275 372 l 325 372 q 450 406 407 372 q 493 504 493 440 q 450 606 493 572 q 324 640 408 640 l 275 640 l 275 372 m 275 205 l 275 0 l 82 0 l 82 987 l 275 987 l 275 812 l 327 812 q 475 802 423 812 q 562 770 528 793 q 658 661 623 729 q 693 514 693 592 q 599 289 693 373 q 346 205 505 205 l 275 205 "},"j":{"x_min":-11,"x_max":249,"ha":340,"o":"m 249 746 l 249 27 q 203 -188 249 -135 q 34 -241 157 -241 q 6 -240 16 -241 q -11 -239 -2 -240 l -11 -71 l -5 -71 q 63 -49 46 -71 q 81 61 81 -28 l 81 746 l 249 746 m 249 822 l 81 822 l 81 987 l 249 987 l 249 822 "},"1":{"x_min":170,"x_max":528,"ha":807,"o":"m 528 0 l 342 0 l 342 841 l 170 841 l 170 987 l 528 987 l 528 0 "},"›":{"x_min":103,"x_max":405,"ha":492,"o":"m 103 590 l 237 590 l 405 372 l 237 155 l 103 155 l 268 372 l 103 590 "},"<":{"x_min":179,"x_max":978,"ha":1157,"o":"m 978 797 l 978 671 l 344 413 l 978 155 l 978 32 l 179 359 l 179 467 l 978 797 "},"t":{"x_min":17,"x_max":420,"ha":425,"o":"m 131 0 l 131 591 l 17 591 l 17 746 l 131 746 l 131 987 l 305 987 l 305 746 l 420 746 l 420 591 l 305 591 l 305 0 l 131 0 "},"¬":{"x_min":172,"x_max":984,"ha":1157,"o":"m 172 585 l 984 585 l 984 245 l 871 245 l 871 472 l 172 472 l 172 585 "},"ù":{"x_min":72,"x_max":735,"ha":810,"o":"m 562 0 l 562 80 q 475 4 524 29 q 363 -20 426 -20 q 147 66 222 -20 q 72 313 72 152 l 72 746 l 248 746 l 248 410 q 282 203 248 259 q 401 148 317 148 q 526 210 488 148 q 564 422 564 272 l 564 746 l 735 746 l 735 0 l 562 0 m 505 843 l 416 843 l 216 1079 l 366 1079 l 505 843 "},"ï":{"x_min":-25,"x_max":351,"ha":325,"o":"m 78 0 l 78 746 l 248 746 l 248 0 l 78 0 m 212 878 l 212 1033 l 351 1033 l 351 878 l 212 878 m -25 878 l -25 1033 l 114 1033 l 114 878 l -25 878 "},"Ò":{"x_min":39,"x_max":1054,"ha":1093,"o":"m 242 502 q 263 383 242 438 q 325 283 284 328 q 428 206 370 233 q 547 180 486 180 q 765 272 677 180 q 853 502 853 364 q 764 717 853 628 q 551 807 676 807 q 332 718 422 807 q 242 502 242 629 m 39 495 q 60 649 39 576 q 125 784 82 721 q 308 949 198 891 q 550 1007 419 1007 q 739 969 648 1007 q 902 859 830 931 q 1015 693 976 785 q 1054 499 1054 601 q 1017 300 1054 393 q 910 136 981 207 q 745 20 839 60 q 547 -20 650 -20 q 344 19 437 -20 q 179 136 251 58 q 74 300 110 209 q 39 495 39 391 m 647 1080 l 558 1080 l 358 1316 l 508 1316 l 647 1080 "},"&":{"x_min":33,"x_max":921,"ha":904,"o":"m 605 165 q 485 26 557 74 q 326 -21 414 -21 q 117 65 202 -21 q 33 276 33 152 q 75 427 33 359 q 208 559 117 496 q 126 662 149 616 q 103 759 103 708 q 174 935 103 864 q 350 1007 245 1007 q 509 937 441 1007 q 578 773 578 867 q 540 652 578 708 q 429 549 502 595 l 569 418 l 661 657 l 836 657 l 695 311 l 921 115 l 804 -15 l 605 165 m 478 278 l 313 434 q 230 362 257 400 q 204 278 204 325 q 238 187 204 223 q 323 151 272 151 q 410 183 371 151 q 478 278 449 215 m 336 652 q 402 702 380 675 q 424 763 424 729 q 399 822 424 797 q 343 847 375 847 q 284 823 306 847 q 262 761 262 800 q 279 706 262 731 q 336 652 296 681 "},"":{"x_min":7,"x_max":789,"ha":807,"o":"m 28 428 l 102 428 l 102 540 l 11 540 l 32 659 l 102 659 q 196 914 104 821 q 447 1007 287 1007 q 680 929 588 1007 q 787 719 772 851 l 596 719 q 546 800 587 770 q 447 831 506 831 q 337 788 375 831 q 297 661 299 745 l 553 661 l 532 542 l 295 542 l 295 428 l 518 428 l 497 309 l 296 309 q 334 191 300 226 q 446 156 368 156 q 546 187 510 156 q 593 283 582 218 l 789 283 l 789 278 q 688 65 789 150 q 445 -20 588 -20 q 200 69 293 -20 q 103 309 107 158 l 7 309 l 28 428 "},"˝":{"x_min":205,"x_max":626,"ha":694,"o":"m 382 843 l 492 1079 l 626 1079 l 453 843 l 382 843 m 276 843 l 205 843 l 295 1079 l 423 1079 l 276 843 "},"I":{"x_min":83,"x_max":276,"ha":359,"o":"m 83 0 l 83 987 l 276 987 l 276 0 l 83 0 "},"G":{"x_min":39,"x_max":1055.359375,"ha":1093,"o":"m 1054 525 q 1054 508 1054 519 q 1055 491 1055 497 q 1043 373 1055 427 q 1008 270 1032 318 q 818 55 938 131 q 546 -20 698 -20 q 339 22 434 -20 q 168 149 244 65 q 72 309 105 220 q 39 499 39 399 q 79 695 39 602 q 196 863 119 787 q 359 971 269 936 q 558 1007 449 1007 q 833 928 717 1007 q 1013 701 949 850 l 778 701 q 677 781 735 754 q 547 808 619 808 q 332 716 420 808 q 244 494 244 625 q 333 270 244 361 q 552 179 422 179 q 716 227 642 179 q 825 360 789 276 l 437 360 l 437 525 l 1054 525 "},"`":{"x_min":158,"x_max":447,"ha":694,"o":"m 447 843 l 358 843 l 158 1079 l 308 1079 l 447 843 "},"·":{"x_min":109,"x_max":295,"ha":404,"o":"m 109 493 q 136 558 109 532 q 202 585 163 585 q 267 558 240 585 q 295 493 295 532 q 267 428 295 455 q 202 401 240 401 q 136 427 163 401 q 109 493 109 454 "},"¿":{"x_min":66,"x_max":693,"ha":707,"o":"m 472 736 q 451 617 472 672 q 380 500 430 563 q 337 454 370 487 q 285 396 304 420 q 267 360 273 379 q 262 314 262 340 q 296 210 262 247 q 391 174 330 174 q 477 213 444 174 q 511 321 509 253 l 693 321 q 604 89 691 178 q 380 0 516 0 q 154 85 243 0 q 66 302 66 170 q 175 519 66 419 q 194 537 189 531 q 274 634 251 590 q 298 736 296 679 l 472 736 m 472 1007 l 472 819 l 298 819 l 298 1007 l 472 1007 "},"ý":{"x_min":-16,"x_max":731,"ha":711,"o":"m -16 746 l 168 746 l 349 225 l 549 746 l 731 746 l 328 -241 l 149 -241 l 254 21 l -16 746 m 256 843 l 394 1079 l 545 1079 l 344 843 l 256 843 "},"º":{"x_min":24,"x_max":611,"ha":635,"o":"m 158 729 q 201 615 158 657 q 316 573 244 573 q 432 616 389 573 q 475 733 475 659 q 430 841 475 799 q 316 884 385 884 q 202 840 246 884 q 158 729 158 797 m 24 729 q 45 833 24 784 q 108 921 67 883 q 204 981 151 960 q 314 1003 257 1003 q 425 984 374 1003 q 519 927 476 965 q 587 837 563 888 q 611 731 611 786 q 590 623 611 672 q 527 533 569 574 q 431 472 484 493 q 315 452 377 452 q 201 472 253 452 q 107 534 150 493 q 45 625 66 576 q 24 729 24 674 "},"∞":{"x_min":144,"x_max":1013,"ha":1157,"o":"m 628 379 q 702 296 659 324 q 802 268 746 268 q 909 309 867 268 q 952 416 952 351 q 913 524 952 480 q 817 567 874 567 q 720 524 764 567 q 628 379 677 480 m 528 449 q 453 532 497 504 q 354 561 409 561 q 246 518 288 561 q 205 411 205 476 q 243 304 205 347 q 338 262 281 262 q 436 304 392 262 q 528 449 480 347 m 583 319 q 483 185 535 227 q 366 143 430 143 q 208 220 273 143 q 144 413 144 298 q 201 610 144 535 q 350 685 259 685 q 464 644 413 685 q 571 508 516 603 q 673 644 619 603 q 798 686 726 686 q 948 607 884 686 q 1013 415 1013 528 q 955 219 1013 294 q 806 144 898 144 q 693 183 743 144 q 583 319 642 222 "},";":{"x_min":124.3125,"x_max":298,"ha":425,"o":"m 298 186 l 298 9 q 256 -131 298 -86 q 125 -178 215 -175 l 124 -78 q 170 -58 157 -73 q 183 -6 183 -42 l 183 0 l 125 0 l 125 186 l 298 186 m 298 527 l 125 527 l 125 714 l 298 714 l 298 527 "},"6":{"x_min":56,"x_max":753,"ha":807,"o":"m 242 335 q 289 209 242 261 q 403 158 336 158 q 518 205 473 158 q 564 329 564 253 q 519 452 564 404 q 406 500 475 500 q 290 451 338 500 q 242 335 242 402 m 409 987 l 611 987 l 387 649 q 431 657 414 655 q 462 660 448 660 q 668 563 584 660 q 753 327 753 467 q 730 209 753 270 q 668 103 707 149 q 551 11 614 40 q 403 -18 487 -18 q 268 7 331 -18 q 157 82 205 33 q 82 191 108 131 q 56 316 56 252 q 84 464 56 390 q 195 661 113 538 l 409 987 "},"n":{"x_min":78,"x_max":736,"ha":810,"o":"m 248 746 l 248 661 q 335 736 285 712 q 447 761 384 761 q 587 730 527 761 q 687 638 647 699 q 724 546 713 598 q 736 394 736 494 l 736 0 l 562 0 l 562 330 q 527 535 562 479 q 408 591 492 591 q 283 529 321 591 q 246 319 246 468 l 246 0 l 78 0 l 78 746 l 248 746 "},"¤":{"x_min":7,"x_max":789,"ha":807,"o":"m 28 428 l 102 428 l 102 540 l 11 540 l 32 659 l 102 659 q 196 914 104 821 q 447 1007 287 1007 q 680 929 588 1007 q 787 719 772 851 l 596 719 q 546 800 587 770 q 447 831 506 831 q 337 788 375 831 q 297 661 299 745 l 553 661 l 532 542 l 295 542 l 295 428 l 518 428 l 497 309 l 296 309 q 334 191 300 226 q 446 156 368 156 q 546 187 510 156 q 593 283 582 218 l 789 283 l 789 278 q 688 65 789 150 q 445 -20 588 -20 q 200 69 293 -20 q 103 309 107 158 l 7 309 l 28 428 "},"∂":{"x_min":62,"x_max":670,"ha":729,"o":"m 513 433 q 530 559 524 503 q 536 659 536 616 q 517 778 536 741 q 454 815 497 815 q 355 775 412 815 q 272 735 297 735 q 229 753 247 735 q 210 793 210 770 q 263 871 210 838 q 399 905 317 905 q 594 797 518 905 q 670 511 670 689 q 568 132 670 281 q 313 -17 466 -17 q 133 58 204 -17 q 62 252 62 134 q 138 471 62 383 q 326 559 215 559 q 440 528 395 559 q 513 433 485 498 m 477 341 q 449 462 477 420 q 370 505 421 505 q 252 415 299 505 q 205 187 205 326 q 232 66 205 108 q 311 25 259 25 q 429 114 382 25 q 477 341 477 204 "},"p":{"x_min":65,"x_max":852,"ha":895,"o":"m 242 376 q 304 216 242 280 q 456 152 366 152 q 609 217 546 152 q 673 373 673 282 q 609 530 673 467 q 448 593 545 593 q 303 530 363 593 q 242 376 242 467 m 236 59 l 236 -241 l 65 -241 l 65 746 l 236 746 l 236 683 q 345 745 288 725 q 467 765 402 765 q 600 742 538 765 q 712 677 662 720 q 815 539 779 619 q 852 370 852 460 q 819 211 852 287 q 725 80 786 135 q 608 5 674 31 q 469 -20 542 -20 q 341 0 397 -20 q 236 59 284 18 "},"‡":{"x_min":40,"x_max":655,"ha":694,"o":"m 267 -157 l 267 97 l 40 97 l 40 225 l 267 225 l 267 601 l 40 601 l 40 730 l 267 730 l 267 987 l 428 987 l 428 730 l 655 730 l 655 601 l 428 601 l 428 225 l 655 225 l 655 97 l 428 97 l 428 -157 l 267 -157 "},"√":{"x_min":45,"x_max":899,"ha":897,"o":"m 765 1136 l 899 1136 l 899 1061 l 825 1061 l 422 -28 l 367 -28 l 152 563 l 64 530 l 45 594 l 251 667 l 419 201 l 765 1136 "},"S":{"x_min":22,"x_max":629,"ha":665,"o":"m 22 306 l 198 306 l 198 292 q 230 192 198 230 q 317 155 263 155 q 410 189 376 155 q 444 284 444 224 q 306 421 444 380 q 279 430 289 426 q 108 532 164 466 q 53 699 53 598 q 129 922 53 838 q 334 1007 206 1007 q 525 932 454 1007 q 605 722 596 857 l 430 722 l 430 730 q 401 806 430 777 q 327 836 373 836 q 252 806 279 836 q 225 724 225 776 q 230 686 225 703 q 248 656 236 669 q 368 599 276 625 q 430 581 408 589 q 580 482 532 546 q 629 317 629 418 q 544 72 629 165 q 319 -20 459 -20 q 105 69 186 -20 q 22 306 24 158 "},"/":{"x_min":-31,"x_max":385,"ha":386,"o":"m 63 -129 l -31 -129 l 292 987 l 385 987 l 63 -129 "},"y":{"x_min":-16,"x_max":731,"ha":711,"o":"m -16 746 l 168 746 l 349 225 l 549 746 l 731 746 l 328 -241 l 149 -241 l 254 21 l -16 746 "},"≈":{"x_min":121,"x_max":1038,"ha":1157,"o":"m 1038 401 l 1038 274 q 902 202 965 225 q 774 180 839 180 q 584 225 713 180 q 382 270 455 270 q 264 245 325 270 q 121 163 203 221 l 121 288 q 261 363 196 339 q 383 387 325 387 q 593 341 463 387 q 780 295 722 295 q 897 319 837 295 q 1038 401 957 344 m 1038 664 l 1038 539 q 901 465 964 488 q 774 443 838 443 q 585 489 714 443 q 382 535 456 535 q 266 511 326 535 q 121 427 207 487 l 121 553 q 260 627 194 602 q 383 652 325 652 q 593 606 464 652 q 775 560 722 560 q 898 583 837 560 q 1038 664 958 607 "},"g":{"x_min":32,"x_max":823,"ha":895,"o":"m 668 746 l 823 746 l 823 123 q 719 -181 823 -70 q 436 -292 616 -292 q 210 -228 301 -292 q 77 -41 119 -165 l 245 -41 q 322 -119 272 -91 q 433 -148 372 -148 q 602 -80 537 -148 q 666 98 666 -12 l 666 106 q 552 26 616 53 q 411 0 487 0 q 269 25 336 0 q 151 99 202 51 q 63 225 95 152 q 32 375 32 299 q 139 654 32 544 q 411 765 246 765 q 549 738 486 765 q 668 656 613 712 l 668 746 m 204 385 q 269 222 204 288 q 430 157 334 157 q 584 223 518 157 q 651 377 651 289 q 585 540 651 473 q 429 608 520 608 q 269 543 335 608 q 204 385 204 479 "},"²":{"x_min":48,"x_max":481,"ha":532,"o":"m 478 395 l 48 395 l 48 506 l 283 705 q 333 761 316 734 q 351 815 351 789 q 327 870 351 848 q 267 892 304 892 q 207 868 228 892 q 186 804 186 845 l 186 793 l 58 793 l 58 796 q 116 941 58 886 q 269 997 174 997 q 419 943 358 997 q 481 814 481 890 q 456 732 481 772 q 382 652 432 692 l 201 501 l 478 501 l 478 395 "},"ë":{"x_min":33,"x_max":811.359375,"ha":842,"o":"m 624 456 q 548 569 601 530 q 416 608 496 608 q 292 566 347 608 q 218 456 237 524 l 624 456 m 212 318 q 276 190 220 237 q 419 144 331 144 q 524 168 477 144 q 598 237 570 192 l 785 237 q 642 47 737 114 q 423 -20 548 -20 q 270 9 340 -20 q 144 96 199 39 q 62 223 91 151 q 33 371 33 296 q 59 518 33 449 q 138 642 86 587 q 267 735 195 702 q 416 768 339 768 q 597 723 513 768 q 740 599 681 679 q 794 492 776 551 q 811 355 811 432 q 810 336 811 349 q 810 318 810 324 l 212 318 m 470 878 l 470 1033 l 609 1033 l 609 878 l 470 878 m 233 878 l 233 1033 l 372 1033 l 372 878 l 233 878 "},"–":{"x_min":0,"x_max":694,"ha":694,"o":"m 694 439 l 694 307 l 0 307 l 0 439 l 694 439 "},"ƒ":{"x_min":86,"x_max":696,"ha":807,"o":"m 445 -30 q 368 -229 433 -173 q 152 -285 304 -285 q 112 -284 126 -285 q 86 -283 98 -284 l 101 -110 l 132 -110 q 238 -84 210 -110 q 273 29 266 -59 l 309 449 l 143 449 l 156 607 l 323 607 l 335 723 q 367 884 346 838 q 429 960 388 931 q 512 995 460 983 q 637 1007 565 1007 q 672 1006 661 1007 q 696 1004 684 1006 l 682 833 q 665 833 676 833 q 649 834 654 834 q 545 806 574 834 q 508 691 515 778 l 501 607 l 679 607 l 665 449 l 487 449 l 445 -30 "},"J":{"x_min":0,"x_max":546,"ha":627,"o":"m 546 337 q 535 186 546 237 q 501 97 525 135 q 405 10 465 41 q 269 -20 345 -20 q 69 53 138 -20 q 0 266 0 127 l 192 266 l 192 263 q 212 198 192 221 q 268 175 232 175 q 333 214 314 175 q 353 352 353 254 l 353 987 l 546 987 l 546 337 "},"Ã":{"x_min":-52,"x_max":876,"ha":836,"o":"m 527 390 l 410 707 l 291 390 l 527 390 m 225 207 l 148 0 l -52 0 l 331 987 l 498 987 l 876 0 l 669 0 l 591 207 l 225 207 m 622 1279 q 573 1162 606 1199 q 487 1126 541 1126 q 462 1127 474 1126 q 440 1131 450 1128 l 383 1148 q 378 1149 381 1148 q 340 1157 350 1157 q 303 1145 317 1157 q 281 1110 289 1134 l 214 1110 q 259 1221 227 1185 q 344 1258 291 1258 q 370 1255 356 1258 q 401 1249 384 1253 l 461 1232 q 482 1228 474 1229 q 495 1227 489 1227 q 532 1241 516 1227 q 554 1279 548 1255 l 622 1279 "},"©":{"x_min":77,"x_max":1081,"ha":1157,"o":"m 818 612 l 705 612 q 665 689 699 662 q 576 717 631 717 q 471 658 509 717 q 433 495 433 599 q 472 336 433 392 q 583 281 511 281 q 671 310 637 281 q 712 394 704 340 l 824 394 q 751 247 819 303 q 579 192 684 192 q 382 272 455 192 q 310 491 310 353 q 384 716 310 632 q 582 800 458 800 q 747 747 682 800 q 818 612 812 695 m 579 922 q 414 890 491 922 q 278 798 338 859 q 184 658 217 736 q 152 495 152 579 q 184 332 152 409 q 278 194 216 255 q 416 100 339 132 q 579 68 494 68 q 741 100 663 68 q 882 195 819 133 q 974 331 943 255 q 1006 495 1006 407 q 974 659 1006 582 q 882 797 942 737 q 744 890 821 858 q 579 922 666 922 m 578 997 q 772 959 681 997 q 935 849 863 922 q 1043 688 1006 778 q 1081 495 1081 597 q 1044 301 1081 391 q 936 142 1007 211 q 770 31 863 70 q 578 -7 678 -7 q 388 31 479 -7 q 225 141 297 69 q 114 304 152 213 q 77 495 77 395 q 115 685 77 594 q 226 851 154 777 q 386 960 298 923 q 578 997 475 997 "},"˘":{"x_min":144,"x_max":547,"ha":694,"o":"m 144 1061 l 226 1060 q 258 988 228 1011 q 346 965 287 965 q 434 987 405 965 q 466 1060 462 1010 l 547 1060 q 491 913 540 961 q 346 865 442 865 q 201 912 251 865 q 144 1061 151 960 "},"≥":{"x_min":176,"x_max":982,"ha":1157,"o":"m 176 121 l 982 121 l 982 8 l 176 8 l 176 121 m 176 830 l 980 564 l 980 465 l 176 202 l 176 321 l 780 516 l 176 710 l 176 830 "},"D":{"x_min":82,"x_max":915,"ha":951,"o":"m 405 170 q 642 248 566 170 q 718 494 718 327 q 635 733 718 648 q 403 819 552 819 l 277 819 l 277 170 l 405 170 m 417 0 l 82 0 l 82 987 l 412 987 q 627 959 546 987 q 773 869 707 932 q 879 705 843 801 q 915 488 915 608 q 864 248 915 354 q 719 73 814 142 q 598 16 665 33 q 417 0 531 0 "},"ÿ":{"x_min":-16,"x_max":731,"ha":711,"o":"m -16 746 l 168 746 l 349 225 l 549 746 l 731 746 l 328 -241 l 149 -241 l 254 21 l -16 746 m 404 878 l 404 1033 l 543 1033 l 543 878 l 404 878 m 167 878 l 167 1033 l 306 1033 l 306 878 l 167 878 "},"ł":{"x_min":0,"x_max":364,"ha":364,"o":"m 96 0 l 96 387 l 0 320 l 0 471 l 96 538 l 96 987 l 267 987 l 267 602 l 364 669 l 364 519 l 267 451 l 267 0 l 96 0 "},"Ł":{"x_min":-1.359375,"x_max":603,"ha":631,"o":"m 603 0 l 102 0 l 102 355 l -1 282 l -1 453 l 102 526 l 102 987 l 293 987 l 293 604 l 436 706 l 436 533 l 293 433 l 293 174 l 603 174 l 603 0 "},"$":{"x_min":101,"x_max":709,"ha":807,"o":"m 283 306 q 315 210 285 242 q 403 178 346 178 q 487 211 455 178 q 519 301 519 245 q 492 380 519 352 q 363 439 465 408 q 184 539 240 476 q 129 700 129 601 q 182 872 129 801 q 334 975 235 943 l 334 1124 l 495 1124 l 495 973 q 632 885 583 950 q 687 719 681 820 l 517 719 q 485 788 514 761 q 411 815 455 815 q 328 785 359 815 q 297 706 297 755 q 302 674 297 687 q 320 651 308 661 q 437 604 350 626 q 513 582 486 591 q 658 482 607 550 q 709 321 709 415 q 654 127 709 205 q 495 16 599 50 l 495 -162 l 334 -162 l 334 8 q 162 111 222 34 q 101 306 101 189 l 283 306 "},"w":{"x_min":-11,"x_max":990,"ha":978,"o":"m 487 451 l 361 0 l 248 0 l -11 746 l 176 746 l 297 315 l 430 746 l 556 746 l 681 315 l 802 746 l 990 746 l 730 0 l 616 0 l 487 451 "},"\\":{"x_min":0,"x_max":415,"ha":386,"o":"m 322 -129 l 0 987 l 92 987 l 415 -129 l 322 -129 "},"∫":{"x_min":34,"x_max":728,"ha":760,"o":"m 220 -174 q 302 295 292 -174 q 305 378 304 350 q 381 898 313 743 q 593 1053 449 1053 q 690 1022 652 1053 q 728 946 728 991 q 704 882 728 905 q 640 859 681 859 q 590 874 610 859 q 562 918 570 889 q 558 949 560 930 q 541 977 556 976 q 460 559 472 977 q 455 391 457 450 q 434 101 448 201 q 393 -64 420 1 q 299 -203 356 -156 q 167 -251 242 -251 q 71 -221 108 -251 q 34 -145 34 -191 q 58 -79 34 -102 q 125 -56 82 -56 q 170 -68 151 -56 q 197 -104 188 -80 q 204 -144 202 -115 q 220 -174 206 -174 "},"Ì":{"x_min":-9,"x_max":280,"ha":359,"o":"m 83 0 l 83 987 l 276 987 l 276 0 l 83 0 m 280 1080 l 191 1080 l -9 1316 l 141 1316 l 280 1080 "},"Ç":{"x_min":41,"x_max":1009,"ha":1044,"o":"m 1009 694 l 773 694 q 673 779 730 751 q 541 808 615 808 q 428 785 481 808 q 333 720 374 763 q 265 617 289 675 q 241 496 241 558 q 327 268 241 360 q 540 177 414 177 q 671 204 613 177 q 765 283 729 231 l 1002 283 q 817 55 932 131 q 542 -20 702 -20 q 337 22 431 -20 q 169 149 243 65 q 73 308 106 219 q 41 499 41 397 q 80 695 41 602 q 195 863 119 787 q 355 970 267 934 q 543 1007 442 1007 q 820 929 705 1007 q 1009 694 935 852 m 366 -293 l 366 -212 q 465 -234 422 -227 q 538 -242 508 -242 q 593 -229 574 -242 q 612 -191 612 -216 q 589 -149 612 -162 q 516 -137 566 -137 q 501 -137 511 -137 q 487 -138 491 -138 l 487 0 l 549 0 l 549 -63 l 559 -63 q 679 -95 639 -63 q 719 -194 719 -128 q 674 -289 719 -255 q 549 -323 630 -323 q 465 -315 511 -323 q 366 -293 418 -308 "},"C":{"x_min":41,"x_max":1009,"ha":1044,"o":"m 1009 694 l 773 694 q 673 779 730 751 q 541 808 615 808 q 428 785 481 808 q 333 720 374 763 q 265 617 289 675 q 241 496 241 558 q 327 268 241 360 q 540 177 414 177 q 671 204 613 177 q 765 283 729 231 l 1002 283 q 817 55 932 131 q 542 -20 702 -20 q 337 22 431 -20 q 169 149 243 65 q 73 308 106 219 q 41 499 41 397 q 80 695 41 602 q 195 863 119 787 q 355 970 267 934 q 543 1007 442 1007 q 820 929 705 1007 q 1009 694 935 852 "},"!":{"x_min":125,"x_max":299,"ha":425,"o":"m 299 269 l 125 269 l 125 987 l 299 987 l 299 269 m 299 0 l 125 0 l 125 186 l 299 186 l 299 0 "},"ç":{"x_min":33,"x_max":799,"ha":842,"o":"m 614 480 q 534 567 582 538 q 419 597 485 597 q 271 533 330 597 q 212 373 212 469 q 272 215 212 278 q 425 152 333 152 q 542 182 496 152 q 613 273 589 212 l 798 273 q 665 58 764 136 q 426 -20 567 -20 q 273 9 343 -20 q 145 96 202 39 q 62 223 92 150 q 33 371 33 296 q 60 519 33 450 q 140 642 87 587 q 271 736 198 704 q 429 768 345 768 q 666 689 566 768 q 799 480 767 611 l 614 480 m 251 -293 l 251 -212 q 350 -234 307 -227 q 423 -242 393 -242 q 478 -229 459 -242 q 497 -191 497 -216 q 474 -149 497 -162 q 401 -137 451 -137 q 386 -137 396 -137 q 372 -138 376 -138 l 372 0 l 434 0 l 434 -63 l 444 -63 q 564 -95 524 -63 q 604 -194 604 -128 q 559 -289 604 -255 q 434 -323 515 -323 q 350 -315 396 -323 q 251 -293 303 -308 "},"È":{"x_min":82,"x_max":615,"ha":694,"o":"m 615 0 l 82 0 l 82 987 l 615 987 l 615 813 l 273 813 l 273 588 l 615 588 l 615 417 l 273 417 l 273 174 l 615 174 l 615 0 m 447 1080 l 358 1080 l 158 1316 l 308 1316 l 447 1080 "},"X":{"x_min":-11,"x_max":823,"ha":814,"o":"m 406 347 l 206 0 l -11 0 l 305 498 l -3 987 l 214 987 l 406 643 l 597 987 l 815 987 l 508 498 l 823 0 l 605 0 l 406 347 "},"ô":{"x_min":32,"x_max":814,"ha":846,"o":"m 211 377 q 268 212 211 273 q 422 152 325 152 q 576 214 519 152 q 634 381 634 276 q 573 536 634 475 q 422 597 513 597 q 270 535 329 597 q 211 377 211 474 m 32 376 q 60 525 32 454 q 144 651 89 596 q 271 737 200 707 q 417 768 341 768 q 566 741 498 768 q 691 660 634 714 q 782 530 750 604 q 814 380 814 457 q 786 224 814 294 q 702 96 758 153 q 575 9 647 39 q 421 -20 504 -20 q 268 9 337 -20 q 141 99 198 39 q 59 227 87 157 q 32 376 32 298 m 223 843 l 350 1080 l 498 1080 l 626 843 l 537 843 l 424 985 l 310 843 l 223 843 "},"đ":{"x_min":54,"x_max":942,"ha":913,"o":"m 649 360 q 589 516 649 453 q 441 579 530 579 q 290 515 352 579 q 229 363 229 452 q 291 210 229 272 q 442 148 353 148 q 590 209 530 148 q 649 360 649 270 m 657 59 q 549 0 604 18 q 429 -20 493 -20 q 162 91 270 -20 q 54 366 54 203 q 163 637 54 525 q 429 749 272 749 q 553 730 499 749 q 657 670 608 711 l 657 803 l 458 803 l 458 904 l 657 904 l 657 987 l 828 987 l 828 904 l 942 904 l 942 803 l 828 803 l 828 0 l 657 0 l 657 59 "},"}":{"x_min":102,"x_max":585,"ha":694,"o":"m 102 1002 l 132 1002 q 254 994 211 1002 q 328 968 298 986 q 383 903 367 945 q 399 764 399 861 l 399 596 q 434 459 399 499 q 555 419 469 419 q 570 420 559 419 q 585 422 580 422 l 585 301 q 570 301 580 301 q 555 302 560 302 q 434 262 470 302 q 399 125 399 222 l 399 -42 q 383 -181 399 -140 q 328 -246 367 -223 q 255 -272 299 -264 q 132 -280 211 -280 l 102 -280 l 102 -159 q 117 -159 107 -159 q 132 -160 128 -160 q 233 -131 207 -160 q 260 -13 260 -103 l 260 148 q 290 296 260 252 q 399 360 321 341 q 290 423 321 379 q 260 573 260 468 l 260 736 q 234 854 260 826 q 134 882 208 882 q 118 881 129 882 q 102 881 107 881 l 102 1002 "},"â":{"x_min":32,"x_max":819,"ha":895,"o":"m 210 379 q 272 221 210 284 q 425 158 335 158 q 569 221 506 158 q 631 371 631 285 q 568 527 631 462 q 422 593 506 593 q 272 530 334 593 q 210 379 210 468 m 651 0 l 651 91 q 563 9 619 35 q 418 -17 506 -17 q 142 95 253 -17 q 32 376 32 208 q 59 525 32 455 q 139 649 87 596 q 262 736 194 708 q 414 765 329 765 q 554 737 495 765 q 648 655 613 710 l 648 746 l 819 746 l 819 0 l 651 0 m 246 843 l 373 1080 l 521 1080 l 649 843 l 560 843 l 447 985 l 333 843 l 246 843 "},"ø":{"x_min":13.609375,"x_max":834.015625,"ha":846,"o":"m 512 580 q 471 592 491 588 q 429 597 451 597 q 270 535 329 597 q 211 369 211 473 q 218 309 211 336 q 240 257 225 282 l 512 580 m 623 713 l 731 841 l 834 759 l 721 626 q 789 509 766 574 q 813 368 813 444 q 784 222 813 292 q 701 98 755 153 q 574 11 644 40 q 421 -18 503 -18 q 315 -5 363 -18 q 223 33 267 7 l 115 -96 l 13 -10 l 126 121 q 55 241 78 179 q 32 372 32 304 q 48 488 32 432 q 97 591 65 543 q 237 719 152 673 q 418 766 322 766 q 524 753 474 766 q 623 713 574 740 m 336 169 q 380 157 359 161 q 421 153 401 153 q 573 214 514 153 q 633 373 633 275 q 626 439 633 411 q 606 490 620 467 l 336 169 "},"Ä":{"x_min":-52,"x_max":876,"ha":836,"o":"m 527 390 l 410 707 l 291 390 l 527 390 m 225 207 l 148 0 l -52 0 l 331 987 l 498 987 l 876 0 l 669 0 l 591 207 l 225 207 m 467 1115 l 467 1270 l 606 1270 l 606 1115 l 467 1115 m 230 1115 l 230 1270 l 369 1270 l 369 1115 l 230 1115 "},"‰":{"x_min":61,"x_max":1742,"ha":1797,"o":"m 668 224 q 686 317 668 273 q 739 397 704 362 q 818 449 773 431 q 912 468 862 468 q 1005 449 961 468 q 1084 397 1050 431 q 1137 317 1119 362 q 1156 224 1156 273 q 1137 130 1156 174 q 1084 51 1119 86 q 1005 -1 1050 16 q 912 -20 961 -20 q 818 -1 862 -20 q 739 51 773 16 q 686 130 704 85 q 668 224 668 174 m 797 224 q 830 142 797 175 q 912 109 863 109 q 993 142 960 109 q 1027 224 1027 175 q 993 305 1027 271 q 912 339 960 339 q 830 305 863 339 q 797 224 797 271 m 190 761 q 223 680 190 713 q 305 648 256 648 q 387 680 354 648 q 420 761 420 713 q 386 844 420 811 q 305 878 353 878 q 223 844 256 878 q 190 761 190 811 m 61 762 q 79 856 61 811 q 133 935 98 900 q 212 988 168 970 q 304 1007 255 1007 q 397 988 353 1007 q 476 935 442 970 q 530 856 511 900 q 549 762 549 811 q 530 669 549 713 q 476 589 511 625 q 397 537 442 555 q 304 519 353 519 q 212 537 255 519 q 133 589 168 555 q 79 669 98 625 q 61 762 61 714 m 1254 224 q 1272 317 1254 272 q 1326 397 1291 361 q 1405 449 1361 431 q 1497 468 1448 468 q 1590 449 1546 468 q 1670 397 1635 431 q 1723 317 1704 361 q 1742 224 1742 272 q 1723 131 1742 175 q 1670 51 1705 86 q 1590 -1 1635 16 q 1497 -20 1546 -20 q 1405 -1 1448 -20 q 1326 51 1361 16 q 1272 130 1291 86 q 1254 224 1254 175 m 1383 224 q 1415 142 1383 175 q 1497 109 1448 109 q 1579 142 1545 109 q 1613 224 1613 175 q 1579 305 1613 271 q 1497 339 1545 339 q 1415 305 1448 339 q 1383 224 1383 272 m 817 1007 l 928 1007 l 403 -21 l 292 -21 l 817 1007 "},"N":{"x_min":82,"x_max":863,"ha":946,"o":"m 272 0 l 82 0 l 82 987 l 265 987 l 674 356 l 674 987 l 863 987 l 863 0 l 683 0 l 272 649 l 272 0 "},"—":{"x_min":0,"x_max":1389,"ha":1389,"o":"m 0 307 l 0 439 l 1389 439 l 1389 307 l 0 307 "},"2":{"x_min":73,"x_max":728,"ha":807,"o":"m 723 0 l 73 0 l 73 184 l 431 519 q 507 613 481 567 q 533 701 533 659 q 497 793 533 757 q 406 830 462 830 q 314 791 346 830 q 282 682 282 752 l 282 666 l 87 666 l 87 668 q 175 913 87 821 q 410 1006 264 1006 q 636 917 545 1006 q 728 700 728 828 q 691 562 728 629 q 580 428 655 495 l 305 178 l 723 178 l 723 0 "},"ü":{"x_min":72,"x_max":735,"ha":810,"o":"m 562 0 l 562 80 q 475 4 524 29 q 363 -20 426 -20 q 147 66 222 -20 q 72 313 72 152 l 72 746 l 248 746 l 248 410 q 282 203 248 259 q 401 148 317 148 q 526 210 488 148 q 564 422 564 272 l 564 746 l 735 746 l 735 0 l 562 0 m 454 878 l 454 1033 l 593 1033 l 593 878 l 454 878 m 217 878 l 217 1033 l 356 1033 l 356 878 l 217 878 "},"":{"x_min":22,"x_max":640,"ha":717,"o":"m 640 0 l 469 0 l 469 987 l 640 987 l 640 0 m 404 746 l 404 591 l 279 591 l 279 0 l 111 0 l 111 591 l 22 591 l 22 746 l 105 746 l 105 766 q 170 942 105 884 q 368 1000 235 1000 q 385 999 373 1000 q 404 999 397 999 l 404 843 l 391 843 q 307 823 332 843 q 281 759 281 804 l 281 746 l 404 746 "},"Ó":{"x_min":39,"x_max":1054,"ha":1093,"o":"m 242 502 q 263 383 242 438 q 325 283 284 328 q 428 206 370 233 q 547 180 486 180 q 765 272 677 180 q 853 502 853 364 q 764 717 853 628 q 551 807 676 807 q 332 718 422 807 q 242 502 242 629 m 39 495 q 60 649 39 576 q 125 784 82 721 q 308 949 198 891 q 550 1007 419 1007 q 739 969 648 1007 q 902 859 830 931 q 1015 693 976 785 q 1054 499 1054 601 q 1017 300 1054 393 q 910 136 981 207 q 745 20 839 60 q 547 -20 650 -20 q 344 19 437 -20 q 179 136 251 58 q 74 300 110 209 q 39 495 39 391 m 448 1080 l 586 1316 l 737 1316 l 536 1080 l 448 1080 "},"˜":{"x_min":143,"x_max":551,"ha":694,"o":"m 551 1042 q 502 925 535 962 q 416 889 470 889 q 391 890 403 889 q 369 894 379 891 l 312 911 q 307 912 310 911 q 269 920 279 920 q 232 908 246 920 q 210 873 218 897 l 143 873 q 188 984 156 948 q 273 1021 220 1021 q 299 1018 285 1021 q 330 1012 313 1016 l 390 995 q 411 991 403 992 q 424 990 418 990 q 461 1004 445 990 q 483 1042 477 1018 l 551 1042 "},"ˇ":{"x_min":146,"x_max":549,"ha":694,"o":"m 146 1080 l 233 1080 l 347 937 l 460 1080 l 549 1080 l 421 843 l 273 843 l 146 1080 "},"Ÿ":{"x_min":-40,"x_max":724,"ha":685,"o":"m 436 355 l 436 0 l 243 0 l 243 355 l -40 987 l 172 987 l 343 561 l 512 987 l 724 987 l 436 355 m 392 1115 l 392 1270 l 531 1270 l 531 1115 l 392 1115 m 155 1115 l 155 1270 l 294 1270 l 294 1115 l 155 1115 "},"€":{"x_min":7,"x_max":789,"ha":807,"o":"m 28 428 l 102 428 l 102 540 l 11 540 l 32 659 l 102 659 q 196 914 104 821 q 447 1007 287 1007 q 680 929 588 1007 q 787 719 772 851 l 596 719 q 546 800 587 770 q 447 831 506 831 q 337 788 375 831 q 297 661 299 745 l 553 661 l 532 542 l 295 542 l 295 428 l 518 428 l 497 309 l 296 309 q 334 191 300 226 q 446 156 368 156 q 546 187 510 156 q 593 283 582 218 l 789 283 l 789 278 q 688 65 789 150 q 445 -20 588 -20 q 200 69 293 -20 q 103 309 107 158 l 7 309 l 28 428 "},"ß":{"x_min":78,"x_max":806,"ha":836,"o":"m 78 0 l 78 656 q 149 917 78 832 q 372 1002 221 1002 q 588 925 505 1002 q 671 727 671 849 q 651 631 671 673 q 588 552 631 589 q 750 454 694 523 q 806 283 806 385 q 723 67 806 154 q 517 -20 640 -20 q 350 26 419 -20 q 248 157 280 72 l 248 0 l 78 0 m 368 580 q 471 617 434 580 q 508 722 508 655 q 471 822 508 782 q 379 862 434 862 q 278 819 309 862 q 248 676 248 777 l 248 263 l 341 263 q 390 163 351 200 q 483 127 428 127 q 589 172 543 127 q 636 276 636 217 q 581 393 636 354 q 418 433 527 433 q 388 432 399 433 q 368 431 378 432 l 368 580 "},"s":{"x_min":32,"x_max":526,"ha":566,"o":"m 191 247 l 191 236 q 216 156 191 187 q 281 126 241 126 q 342 149 318 126 q 367 207 367 172 q 349 262 367 241 q 285 305 331 283 q 209 337 259 316 q 145 369 159 357 q 84 444 104 403 q 65 540 65 486 q 131 699 65 634 q 291 765 197 765 q 448 707 390 765 q 512 546 506 649 l 356 546 l 356 550 q 337 606 356 586 q 285 627 318 627 q 237 606 256 627 q 218 556 218 586 q 318 465 218 507 q 358 448 344 454 q 490 355 455 405 q 526 220 526 305 q 455 48 526 116 q 277 -20 385 -20 q 104 51 170 -20 q 32 246 38 123 l 191 247 "},"?":{"x_min":42,"x_max":668,"ha":707,"o":"m 262 269 q 283 388 262 333 q 353 507 304 443 q 396 552 363 519 q 448 609 430 585 q 466 645 461 625 q 472 691 472 665 q 438 794 472 757 q 343 832 404 832 q 257 792 289 832 q 224 686 224 752 l 42 686 q 130 917 42 827 q 353 1007 218 1007 q 579 920 490 1007 q 668 702 668 834 q 559 489 668 587 q 537 469 544 475 q 460 373 482 418 q 436 269 438 328 l 262 269 m 262 0 l 262 186 l 436 186 l 436 0 l 262 0 "},"c":{"x_min":33,"x_max":799,"ha":842,"o":"m 614 480 q 534 567 582 538 q 419 597 485 597 q 271 533 330 597 q 212 373 212 469 q 272 215 212 278 q 425 152 333 152 q 542 182 496 152 q 613 273 589 212 l 798 273 q 665 58 764 136 q 426 -20 567 -20 q 273 9 343 -20 q 145 96 202 39 q 62 223 92 150 q 33 371 33 296 q 60 519 33 450 q 140 642 87 587 q 271 736 198 704 q 429 768 345 768 q 666 689 566 768 q 799 480 767 611 l 614 480 "},"¶":{"x_min":37,"x_max":658,"ha":694,"o":"m 658 1003 l 658 936 l 579 936 l 579 0 l 490 0 l 490 936 l 376 936 l 376 0 l 287 0 l 287 532 q 105 600 173 536 q 37 766 37 664 q 109 938 37 873 q 301 1003 182 1003 l 658 1003 "},"•":{"x_min":208,"x_max":609,"ha":819,"o":"m 208 516 q 266 657 208 599 q 409 716 325 716 q 550 657 491 716 q 609 516 609 598 q 549 374 609 433 q 407 315 490 315 q 266 373 324 315 q 208 516 208 432 "},"(":{"x_min":64,"x_max":357,"ha":411,"o":"m 357 1007 l 357 819 q 269 721 295 779 q 244 548 244 663 l 244 157 q 269 -14 244 43 q 357 -112 295 -72 l 357 -300 q 137 -145 211 -249 q 64 113 64 -40 l 64 592 q 137 851 64 747 q 357 1007 211 956 "},"◊":{"x_min":4,"x_max":682,"ha":686,"o":"m 343 955 l 81 401 l 343 -158 l 604 401 l 343 955 m 343 1121 l 682 401 l 343 -324 l 4 401 l 343 1121 "},"­":{"x_min":61,"x_max":411,"ha":472,"o":"m 411 453 l 411 293 l 61 293 l 61 453 l 411 453 "},":":{"x_min":125,"x_max":299,"ha":425,"o":"m 299 527 l 125 527 l 125 714 l 299 714 l 299 527 m 299 0 l 125 0 l 125 186 l 299 186 l 299 0 "},"Û":{"x_min":82,"x_max":718,"ha":800,"o":"m 82 987 l 275 987 l 275 417 q 303 231 275 283 q 400 180 331 180 q 496 231 468 180 q 525 417 525 283 l 525 987 l 718 987 l 718 360 q 706 203 718 255 q 667 112 694 151 q 556 12 621 44 q 400 -20 491 -20 q 243 12 308 -20 q 132 112 178 44 q 93 200 105 151 q 82 360 82 249 l 82 987 m 199 1080 l 326 1317 l 474 1317 l 602 1080 l 513 1080 l 400 1222 l 286 1080 l 199 1080 "},"V":{"x_min":-29,"x_max":815,"ha":787,"o":"m 463 0 l 325 0 l -29 987 l 177 987 l 393 328 l 609 987 l 815 987 l 463 0 "}," ":{"x_min":0,"x_max":0,"ha":807},"@":{"x_min":66,"x_max":1322,"ha":1389,"o":"m 795 192 q 708 105 758 133 q 589 78 659 78 q 431 136 486 78 q 377 306 377 195 q 470 574 377 464 q 696 684 564 684 q 797 660 757 684 q 864 587 838 637 l 902 660 l 1006 660 l 906 262 q 905 254 905 259 q 900 229 900 235 q 918 188 900 203 q 966 172 936 172 q 1039 193 1000 172 q 1110 250 1077 213 q 1185 370 1159 302 q 1211 517 1211 439 q 1084 795 1211 688 q 752 903 957 903 q 578 881 658 903 q 432 818 498 860 q 243 620 309 741 q 177 353 177 500 q 319 14 177 141 q 698 -112 461 -112 q 917 -78 810 -112 q 1115 17 1024 -45 l 1160 -49 q 944 -165 1059 -126 q 703 -204 829 -204 q 465 -171 573 -204 q 274 -75 357 -138 q 117 111 169 4 q 66 354 66 218 q 101 566 66 465 q 205 751 136 667 q 444 935 304 872 q 756 999 584 999 q 970 968 868 999 q 1142 881 1071 937 q 1277 721 1232 812 q 1322 518 1322 631 q 1277 313 1322 408 q 1152 152 1233 218 q 1050 95 1105 115 q 936 76 995 76 q 830 104 864 76 q 795 189 795 131 l 795 192 m 835 479 q 794 567 826 536 q 710 599 761 599 q 563 511 624 599 q 502 301 502 424 q 532 198 502 234 q 620 163 563 163 q 730 208 681 163 q 798 325 780 253 l 835 479 "},"¾":{"x_min":49,"x_max":1210,"ha":1249,"o":"m 1051 177 l 1051 407 l 886 177 l 1051 177 m 1158 0 l 1051 0 l 1051 84 l 778 84 l 778 177 l 1046 553 l 1158 553 l 1158 177 l 1210 177 l 1210 84 l 1158 84 l 1158 0 m 872 1007 l 971 1007 l 378 -21 l 277 -21 l 872 1007 m 49 613 l 166 613 l 166 608 q 189 545 166 569 q 250 522 212 522 q 318 548 292 522 q 345 617 345 575 q 315 682 345 660 q 229 704 286 704 q 221 703 227 704 q 211 703 215 703 l 211 795 l 228 795 q 286 808 268 795 q 305 851 305 822 q 290 889 305 876 q 250 903 275 903 q 215 888 228 903 q 202 849 203 874 l 93 848 q 138 957 93 916 q 257 999 183 999 q 368 958 322 999 q 414 861 414 917 q 399 802 414 827 q 353 757 384 777 q 432 699 406 736 q 459 608 459 663 q 445 542 459 572 q 406 485 432 511 q 339 437 374 451 q 254 424 304 424 q 103 473 158 424 q 49 610 49 523 l 49 613 "},"i":{"x_min":78,"x_max":248,"ha":325,"o":"m 248 822 l 78 822 l 78 987 l 248 987 l 248 822 m 78 0 l 78 746 l 248 746 l 248 0 l 78 0 "},"≤":{"x_min":176,"x_max":980,"ha":1157,"o":"m 176 121 l 980 121 l 980 8 l 176 8 l 176 121 m 980 830 l 980 710 l 377 516 l 980 321 l 980 202 l 176 465 l 176 564 l 980 830 "},"m":{"x_min":78,"x_max":1215,"ha":1289,"o":"m 248 746 l 248 661 q 335 736 285 712 q 447 761 384 761 q 600 729 537 761 q 710 629 664 697 q 810 728 755 695 q 931 761 864 761 q 1141 674 1068 761 q 1215 427 1215 588 l 1215 0 l 1044 0 l 1044 330 q 1010 536 1044 481 q 894 591 976 591 q 770 529 807 591 q 734 319 734 468 l 734 0 l 562 0 l 562 330 q 527 536 562 481 q 408 591 493 591 q 283 529 321 591 q 246 319 246 468 l 246 0 l 78 0 l 78 746 l 248 746 "},"ž":{"x_min":24,"x_max":564,"ha":585,"o":"m 24 0 l 24 160 l 357 585 l 52 585 l 52 746 l 544 746 l 544 559 l 233 167 l 564 167 l 564 0 l 24 0 m 92 1080 l 179 1080 l 293 937 l 406 1080 l 495 1080 l 367 843 l 219 843 l 92 1080 "},"á":{"x_min":32,"x_max":819,"ha":895,"o":"m 210 379 q 272 221 210 284 q 425 158 335 158 q 569 221 506 158 q 631 371 631 285 q 568 527 631 462 q 422 593 506 593 q 272 530 334 593 q 210 379 210 468 m 651 0 l 651 91 q 563 9 619 35 q 418 -17 506 -17 q 142 95 253 -17 q 32 376 32 208 q 59 525 32 455 q 139 649 87 596 q 262 736 194 708 q 414 765 329 765 q 554 737 495 765 q 648 655 613 710 l 648 746 l 819 746 l 819 0 l 651 0 m 348 843 l 486 1079 l 637 1079 l 436 843 l 348 843 "},"×":{"x_min":195,"x_max":977,"ha":1157,"o":"m 273 805 l 584 493 l 897 805 l 977 725 l 665 413 l 977 102 l 897 22 l 584 334 l 273 22 l 195 102 l 505 413 l 195 725 l 273 805 "},"İ":{"x_min":83,"x_max":276,"ha":359,"o":"m 83 0 l 83 987 l 276 987 l 276 0 l 83 0 m 108 1109 l 108 1272 l 254 1272 l 254 1109 l 108 1109 "},"K":{"x_min":82,"x_max":791,"ha":772,"o":"m 277 490 l 576 987 l 791 987 l 474 496 l 791 0 l 576 0 l 277 490 m 275 0 l 82 0 l 82 987 l 275 987 l 275 0 "},"7":{"x_min":136,"x_max":701,"ha":807,"o":"m 351 0 l 153 0 l 521 813 l 136 813 l 136 987 l 701 987 l 701 803 l 351 0 "},"¨":{"x_min":159,"x_max":535,"ha":694,"o":"m 396 878 l 396 1033 l 535 1033 l 535 878 l 396 878 m 159 878 l 159 1033 l 298 1033 l 298 878 l 159 878 "},"Y":{"x_min":-40,"x_max":724,"ha":685,"o":"m 436 355 l 436 0 l 243 0 l 243 355 l -40 987 l 172 987 l 343 561 l 512 987 l 724 987 l 436 355 "},"E":{"x_min":82,"x_max":615,"ha":694,"o":"m 615 0 l 82 0 l 82 987 l 615 987 l 615 813 l 273 813 l 273 588 l 615 588 l 615 417 l 273 417 l 273 174 l 615 174 l 615 0 "},"Ô":{"x_min":39,"x_max":1054,"ha":1093,"o":"m 242 502 q 263 383 242 438 q 325 283 284 328 q 428 206 370 233 q 547 180 486 180 q 765 272 677 180 q 853 502 853 364 q 764 717 853 628 q 551 807 676 807 q 332 718 422 807 q 242 502 242 629 m 39 495 q 60 649 39 576 q 125 784 82 721 q 308 949 198 891 q 550 1007 419 1007 q 739 969 648 1007 q 902 859 830 931 q 1015 693 976 785 q 1054 499 1054 601 q 1017 300 1054 393 q 910 136 981 207 q 745 20 839 60 q 547 -20 650 -20 q 344 19 437 -20 q 179 136 251 58 q 74 300 110 209 q 39 495 39 391 m 346 1080 l 473 1317 l 621 1317 l 749 1080 l 660 1080 l 547 1222 l 433 1080 l 346 1080 "},"Ï":{"x_min":-8,"x_max":368,"ha":359,"o":"m 83 0 l 83 987 l 276 987 l 276 0 l 83 0 m 229 1115 l 229 1270 l 368 1270 l 368 1115 l 229 1115 m -8 1115 l -8 1270 l 131 1270 l 131 1115 l -8 1115 "},"‹":{"x_min":86,"x_max":388,"ha":492,"o":"m 388 590 l 222 372 l 388 155 l 253 155 l 86 372 l 253 590 l 388 590 "},"±":{"x_min":172,"x_max":985,"ha":1157,"o":"m 172 124 l 985 124 l 985 10 l 172 10 l 172 124 m 521 819 l 636 819 l 636 592 l 985 592 l 985 480 l 636 480 l 636 253 l 521 253 l 521 480 l 172 480 l 172 592 l 521 592 l 521 819 "},"ì":{"x_min":-26,"x_max":263,"ha":325,"o":"m 78 0 l 78 746 l 248 746 l 248 0 l 78 0 m 263 843 l 174 843 l -26 1079 l 124 1079 l 263 843 "},"|":{"x_min":288,"x_max":409,"ha":694,"o":"m 288 1061 l 409 1061 l 409 -328 l 288 -328 l 288 1061 "},"§":{"x_min":36,"x_max":659,"ha":694,"o":"m 447 312 q 488 346 475 328 q 502 387 502 364 q 485 434 502 414 q 422 477 468 454 l 241 569 q 201 532 215 553 q 187 490 187 512 q 207 444 187 464 q 295 388 227 423 l 447 312 m 78 90 l 246 90 q 277 10 251 37 q 351 -16 303 -16 q 422 6 396 -16 q 449 64 449 28 q 343 170 449 119 q 309 187 322 180 l 189 248 q 74 337 112 286 q 36 451 36 388 q 65 556 36 511 q 152 631 94 602 q 102 698 118 662 q 86 779 86 735 q 156 944 86 881 q 342 1007 226 1007 q 530 945 462 1007 q 599 775 598 884 l 440 775 q 413 844 438 821 q 339 868 387 868 q 273 849 296 868 q 251 798 251 831 q 277 748 251 771 q 375 692 303 726 l 489 638 q 617 547 576 597 q 659 430 659 496 q 628 322 659 368 q 539 252 597 277 q 598 176 579 218 q 618 83 618 134 q 543 -89 618 -21 q 351 -157 468 -157 q 152 -94 221 -157 q 78 90 82 -31 "},"q":{"x_min":40,"x_max":828,"ha":895,"o":"m 649 376 q 590 530 649 467 q 445 593 530 593 q 284 530 348 593 q 221 373 221 467 q 284 217 221 282 q 437 152 347 152 q 588 216 528 152 q 649 376 649 280 m 657 59 q 551 0 607 18 q 425 -20 495 -20 q 285 5 351 -20 q 168 80 219 31 q 73 212 107 136 q 40 370 40 288 q 76 539 40 460 q 180 677 112 619 q 292 742 229 720 q 425 765 354 765 q 547 745 490 765 q 657 683 604 725 l 657 746 l 828 746 l 828 -241 l 657 -241 l 657 59 "},"b":{"x_min":65,"x_max":852,"ha":895,"o":"m 242 369 q 303 215 242 278 q 448 152 363 152 q 609 214 545 152 q 673 372 673 277 q 609 527 673 462 q 456 593 546 593 q 304 528 366 593 q 242 369 242 464 m 236 686 q 340 745 284 726 q 469 764 396 764 q 609 738 543 764 q 725 665 675 713 q 819 534 786 609 q 852 375 852 458 q 815 205 852 285 q 712 67 779 125 q 600 2 662 24 q 467 -20 538 -20 q 344 0 401 -20 q 236 60 287 20 l 236 0 l 65 0 l 65 987 l 236 987 l 236 686 "},"®":{"x_min":77,"x_max":1081,"ha":1157,"o":"m 495 710 l 495 533 l 574 533 q 673 553 642 533 q 705 619 705 574 q 672 687 705 665 q 569 710 639 710 l 495 710 m 374 786 l 590 786 q 768 747 708 786 q 829 633 829 708 q 796 531 829 571 q 703 477 763 490 l 829 224 l 694 224 l 582 458 l 495 458 l 495 224 l 374 224 l 374 786 m 579 922 q 416 891 491 922 q 281 800 341 860 q 185 658 219 736 q 152 495 152 579 q 183 333 152 410 q 275 195 215 256 q 413 101 336 134 q 572 68 491 68 q 739 99 660 68 q 880 193 817 131 q 973 327 941 251 q 1006 488 1006 403 q 975 655 1006 578 q 884 794 944 733 q 743 889 821 857 q 579 922 666 922 m 578 997 q 774 959 682 997 q 937 847 865 921 q 1044 686 1007 776 q 1081 495 1081 596 q 1043 300 1081 391 q 933 140 1005 210 q 768 30 860 68 q 578 -7 677 -7 q 386 32 478 -7 q 222 144 294 71 q 114 306 151 216 q 77 495 77 396 q 116 688 77 595 q 228 854 155 781 q 387 961 298 925 q 578 997 475 997 "},"L":{"x_min":82,"x_max":583,"ha":611,"o":"m 583 0 l 82 0 l 82 987 l 273 987 l 273 174 l 583 174 l 583 0 "}," ":{"x_min":0,"x_max":0,"ha":404},"∑":{"x_min":22,"x_max":936,"ha":964,"o":"m 41 999 l 909 999 l 909 846 l 284 846 l 723 381 l 275 -112 l 936 -112 l 936 -266 l 22 -266 l 22 -157 l 505 375 l 41 862 l 41 999 "},"À":{"x_min":-52,"x_max":876,"ha":836,"o":"m 527 390 l 410 707 l 291 390 l 527 390 m 225 207 l 148 0 l -52 0 l 331 987 l 498 987 l 876 0 l 669 0 l 591 207 l 225 207 m 518 1080 l 429 1080 l 229 1316 l 379 1316 l 518 1080 "},"+":{"x_min":172,"x_max":985,"ha":1157,"o":"m 521 828 l 636 828 l 636 471 l 985 471 l 985 358 l 636 358 l 636 0 l 521 0 l 521 358 l 172 358 l 172 471 l 521 471 l 521 828 "},"½":{"x_min":107,"x_max":1200,"ha":1249,"o":"m 1197 0 l 786 0 l 786 103 l 1012 290 q 1061 343 1045 317 q 1078 393 1078 368 q 1055 443 1078 423 q 996 464 1032 464 q 938 442 959 464 q 918 381 918 421 l 918 372 l 796 372 l 796 373 q 851 510 796 458 q 999 562 907 562 q 1141 512 1083 562 q 1200 391 1200 462 q 1176 314 1200 351 q 1107 238 1153 276 l 932 100 l 1197 100 l 1197 0 m 872 1007 l 971 1007 l 378 -21 l 277 -21 l 872 1007 m 332 434 l 215 434 l 215 905 l 107 905 l 107 987 l 332 987 l 332 434 "},"Ë":{"x_min":82,"x_max":615,"ha":694,"o":"m 615 0 l 82 0 l 82 987 l 615 987 l 615 813 l 273 813 l 273 588 l 615 588 l 615 417 l 273 417 l 273 174 l 615 174 l 615 0 m 396 1115 l 396 1270 l 535 1270 l 535 1115 l 396 1115 m 159 1115 l 159 1270 l 298 1270 l 298 1115 l 159 1115 "},"'":{"x_min":58,"x_max":169,"ha":227,"o":"m 58 974 l 169 974 l 169 596 l 58 596 l 58 974 "},"Š":{"x_min":22,"x_max":629,"ha":665,"o":"m 22 306 l 198 306 l 198 292 q 230 192 198 230 q 317 155 263 155 q 410 189 376 155 q 444 284 444 224 q 306 421 444 380 q 279 430 289 426 q 108 532 164 466 q 53 699 53 598 q 129 922 53 838 q 334 1007 206 1007 q 525 932 454 1007 q 605 722 596 857 l 430 722 l 430 730 q 401 806 430 777 q 327 836 373 836 q 252 806 279 836 q 225 724 225 776 q 230 686 225 703 q 248 656 236 669 q 368 599 276 625 q 430 581 408 589 q 580 482 532 546 q 629 317 629 418 q 544 72 629 165 q 319 -20 459 -20 q 105 69 186 -20 q 22 306 24 158 m 132 1317 l 219 1317 l 333 1174 l 446 1317 l 535 1317 l 407 1080 l 259 1080 l 132 1317 "},"˛":{"x_min":236,"x_max":458,"ha":694,"o":"m 423 0 q 355 -74 376 -40 q 335 -144 335 -109 q 348 -186 335 -173 q 394 -199 362 -199 l 458 -199 l 458 -305 l 393 -305 q 274 -275 312 -305 q 236 -182 236 -245 q 267 -94 236 -138 q 364 0 298 -49 l 423 0 "},"ð":{"x_min":71,"x_max":780,"ha":842,"o":"m 416 522 q 284 468 337 522 q 232 331 232 414 q 284 188 232 242 q 424 135 337 135 q 562 188 511 135 q 613 334 613 242 q 558 469 613 417 q 416 522 503 522 m 346 996 q 437 951 394 974 q 519 900 480 927 l 716 970 l 758 862 l 621 811 q 739 606 699 718 q 780 368 780 494 q 681 87 780 193 q 421 -18 582 -18 q 283 7 345 -18 q 170 86 220 33 q 96 196 121 135 q 71 326 71 257 q 97 456 71 394 q 172 567 123 518 q 286 641 222 615 q 419 668 351 668 q 507 654 466 668 q 587 612 549 640 q 538 698 564 661 q 482 765 513 735 l 280 693 l 238 797 l 373 847 q 344 862 360 854 q 293 886 327 871 l 346 996 "},"ş":{"x_min":32,"x_max":526,"ha":566,"o":"m 191 247 l 191 236 q 216 156 191 187 q 281 126 241 126 q 342 149 318 126 q 367 207 367 172 q 349 262 367 241 q 285 305 331 283 q 209 337 259 316 q 145 369 159 357 q 84 444 104 403 q 65 540 65 486 q 131 699 65 634 q 291 765 197 765 q 448 707 390 765 q 512 546 506 649 l 356 546 l 356 550 q 337 606 356 586 q 285 627 318 627 q 237 606 256 627 q 218 556 218 586 q 318 465 218 507 q 358 448 344 454 q 490 355 455 405 q 526 220 526 305 q 455 48 526 116 q 277 -20 385 -20 q 104 51 170 -20 q 32 246 38 123 l 191 247 m 106 -293 l 106 -212 q 205 -234 162 -227 q 278 -242 248 -242 q 333 -229 314 -242 q 352 -191 352 -216 q 329 -149 352 -162 q 256 -137 306 -137 q 241 -137 251 -137 q 227 -138 231 -138 l 227 0 l 289 0 l 289 -63 l 299 -63 q 419 -95 379 -63 q 459 -194 459 -128 q 414 -289 459 -255 q 289 -323 370 -323 q 205 -315 251 -323 q 106 -293 158 -308 "},"ı":{"x_min":78,"x_max":248,"ha":325,"o":"m 78 0 l 78 746 l 248 746 l 248 0 l 78 0 "},"Ć":{"x_min":41,"x_max":1009,"ha":1044,"o":"m 1009 694 l 773 694 q 673 779 730 751 q 541 808 615 808 q 428 785 481 808 q 333 720 374 763 q 265 617 289 675 q 241 496 241 558 q 327 268 241 360 q 540 177 414 177 q 671 204 613 177 q 765 283 729 231 l 1002 283 q 817 55 932 131 q 542 -20 702 -20 q 337 22 431 -20 q 169 149 243 65 q 73 308 106 219 q 41 499 41 397 q 80 695 41 602 q 195 863 119 787 q 355 970 267 934 q 543 1007 442 1007 q 820 929 705 1007 q 1009 694 935 852 m 445 1080 l 583 1316 l 734 1316 l 533 1080 l 445 1080 "},"ä":{"x_min":32,"x_max":819,"ha":895,"o":"m 210 379 q 272 221 210 284 q 425 158 335 158 q 569 221 506 158 q 631 371 631 285 q 568 527 631 462 q 422 593 506 593 q 272 530 334 593 q 210 379 210 468 m 651 0 l 651 91 q 563 9 619 35 q 418 -17 506 -17 q 142 95 253 -17 q 32 376 32 208 q 59 525 32 455 q 139 649 87 596 q 262 736 194 708 q 414 765 329 765 q 554 737 495 765 q 648 655 613 710 l 648 746 l 819 746 l 819 0 l 651 0 m 496 878 l 496 1033 l 635 1033 l 635 878 l 496 878 m 259 878 l 259 1033 l 398 1033 l 398 878 l 259 878 "},"¹":{"x_min":113,"x_max":349,"ha":532,"o":"m 349 394 l 227 394 l 227 900 l 113 900 l 113 987 l 349 987 l 349 394 "},"£":{"x_min":41.34375,"x_max":766,"ha":807,"o":"m 594 436 l 389 436 q 430 345 418 383 q 442 269 442 307 q 436 210 442 235 q 417 163 430 185 q 435 159 427 160 q 449 158 442 158 q 553 202 512 158 q 594 319 594 247 q 591 351 594 336 q 587 379 589 366 l 759 379 q 764 342 762 360 q 766 305 766 324 q 679 72 766 157 q 440 -12 593 -12 q 370 -9 416 -12 q 345 -8 353 -8 l 61 0 l 61 164 l 220 164 q 249 205 239 179 q 260 269 260 231 q 243 348 260 310 q 189 436 226 387 l 41 436 l 41 595 l 112 595 q 100 640 104 618 q 96 682 96 662 q 188 913 96 819 q 419 1007 281 1007 q 633 938 549 1007 q 740 749 717 870 l 541 749 q 496 811 528 788 q 422 835 464 835 q 328 798 365 835 q 291 710 291 762 q 299 660 291 688 q 324 595 307 631 l 594 595 l 594 436 "},"W":{"x_min":-21,"x_max":1190,"ha":1171,"o":"m -21 987 l 176 987 l 339 347 l 518 987 l 651 987 l 830 347 l 992 987 l 1190 987 l 904 0 l 750 0 l 584 616 l 418 0 l 265 0 l -21 987 "},"Ğ":{"x_min":39,"x_max":1055.359375,"ha":1093,"o":"m 1054 525 q 1054 508 1054 519 q 1055 491 1055 497 q 1043 373 1055 427 q 1008 270 1032 318 q 818 55 938 131 q 546 -20 698 -20 q 339 22 434 -20 q 168 149 244 65 q 72 309 105 220 q 39 499 39 399 q 79 695 39 602 q 196 863 119 787 q 359 971 269 936 q 558 1007 449 1007 q 833 928 717 1007 q 1013 701 949 850 l 778 701 q 677 781 735 754 q 547 808 619 808 q 332 716 420 808 q 244 494 244 625 q 333 270 244 361 q 552 179 422 179 q 716 227 642 179 q 825 360 789 276 l 437 360 l 437 525 l 1054 525 m 344 1298 l 426 1297 q 458 1225 428 1248 q 546 1202 487 1202 q 634 1224 605 1202 q 666 1297 662 1247 l 747 1297 q 691 1150 740 1198 q 546 1102 642 1102 q 401 1149 451 1102 q 344 1298 351 1197 "},"v":{"x_min":-18,"x_max":701,"ha":675,"o":"m 402 0 l 266 0 l -18 746 l 167 746 l 341 250 l 520 746 l 701 746 l 402 0 "},">":{"x_min":179,"x_max":978,"ha":1157,"o":"m 179 797 l 978 467 l 978 359 l 179 32 l 179 155 l 812 413 l 179 671 l 179 797 "},"û":{"x_min":72,"x_max":735,"ha":810,"o":"m 562 0 l 562 80 q 475 4 524 29 q 363 -20 426 -20 q 147 66 222 -20 q 72 313 72 152 l 72 746 l 248 746 l 248 410 q 282 203 248 259 q 401 148 317 148 q 526 210 488 148 q 564 422 564 272 l 564 746 l 735 746 l 735 0 l 562 0 m 204 843 l 331 1080 l 479 1080 l 607 843 l 518 843 l 405 985 l 291 843 l 204 843 "},"Ð":{"x_min":0,"x_max":935,"ha":971,"o":"m 425 170 q 662 248 586 170 q 738 494 738 327 q 654 733 738 648 q 422 819 571 819 l 296 819 l 296 574 l 500 574 l 500 413 l 296 413 l 296 170 l 425 170 m 437 0 l 102 0 l 102 413 l 0 413 l 0 574 l 102 574 l 102 987 l 431 987 q 646 959 565 987 q 793 869 728 932 q 899 705 863 801 q 935 488 935 608 q 885 248 935 354 q 739 73 835 142 q 618 16 685 33 q 437 0 551 0 "},"r":{"x_min":71,"x_max":426,"ha":418,"o":"m 426 595 q 285 542 325 586 q 245 380 245 497 l 245 0 l 71 0 l 71 746 l 234 746 l 234 660 q 320 733 273 710 q 426 757 367 757 l 426 595 "},"Č":{"x_min":41,"x_max":1009,"ha":1044,"o":"m 1009 694 l 773 694 q 673 779 730 751 q 541 808 615 808 q 428 785 481 808 q 333 720 374 763 q 265 617 289 675 q 241 496 241 558 q 327 268 241 360 q 540 177 414 177 q 671 204 613 177 q 765 283 729 231 l 1002 283 q 817 55 932 131 q 542 -20 702 -20 q 337 22 431 -20 q 169 149 243 65 q 73 308 106 219 q 41 499 41 397 q 80 695 41 602 q 195 863 119 787 q 355 970 267 934 q 543 1007 442 1007 q 820 929 705 1007 q 1009 694 935 852 m 343 1317 l 430 1317 l 544 1174 l 657 1317 l 746 1317 l 618 1080 l 470 1080 l 343 1317 "},"x":{"x_min":-33,"x_max":657,"ha":633,"o":"m 311 237 l 156 0 l -33 0 l 219 387 l -4 746 l 190 746 l 319 533 l 451 746 l 654 746 l 416 391 l 657 0 l 459 0 l 311 237 "},"è":{"x_min":33,"x_max":811.359375,"ha":842,"o":"m 624 456 q 548 569 601 530 q 416 608 496 608 q 292 566 347 608 q 218 456 237 524 l 624 456 m 212 318 q 276 190 220 237 q 419 144 331 144 q 524 168 477 144 q 598 237 570 192 l 785 237 q 642 47 737 114 q 423 -20 548 -20 q 270 9 340 -20 q 144 96 199 39 q 62 223 91 151 q 33 371 33 296 q 59 518 33 449 q 138 642 86 587 q 267 735 195 702 q 416 768 339 768 q 597 723 513 768 q 740 599 681 679 q 794 492 776 551 q 811 355 811 432 q 810 336 811 349 q 810 318 810 324 l 212 318 m 521 843 l 432 843 l 232 1079 l 382 1079 l 521 843 "},"Ø":{"x_min":1.375,"x_max":1068.234375,"ha":1093,"o":"m 682 776 q 615 799 647 792 q 551 807 583 807 q 328 717 417 807 q 240 494 240 628 q 253 408 240 449 q 294 328 266 367 l 682 776 m 398 220 q 459 190 423 200 q 541 180 494 180 q 762 271 674 180 q 851 502 851 363 q 837 594 851 551 q 796 678 823 638 l 398 220 m 265 66 l 112 -108 l 1 -9 l 154 167 q 67 324 95 241 q 39 503 39 407 q 77 697 39 606 q 190 861 116 788 q 354 969 264 932 q 548 1006 444 1006 q 686 987 621 1006 q 810 930 752 968 l 954 1091 l 1068 991 l 929 830 q 1022 676 990 760 q 1054 499 1054 593 q 1017 302 1054 395 q 910 136 981 209 q 741 19 837 59 q 534 -20 646 -20 q 395 1 461 -20 q 265 66 328 22 "},"÷":{"x_min":172,"x_max":986,"ha":1157,"o":"m 579 248 q 644 220 617 248 q 672 154 672 193 q 645 90 672 117 q 579 64 618 64 q 512 90 539 64 q 486 154 486 116 q 513 220 486 193 q 579 248 540 248 m 172 471 l 986 471 l 986 358 l 172 358 l 172 471 m 579 765 q 644 737 617 765 q 672 671 672 709 q 645 607 672 634 q 579 581 618 581 q 512 607 539 581 q 486 671 486 633 q 513 737 486 709 q 579 765 540 765 "},"h":{"x_min":78,"x_max":736,"ha":810,"o":"m 248 987 l 248 661 q 335 736 285 712 q 447 761 384 761 q 661 675 586 761 q 736 427 736 589 l 736 0 l 562 0 l 562 328 q 527 536 562 481 q 408 591 493 591 q 283 529 321 591 q 246 319 246 468 l 246 0 l 78 0 l 78 987 l 248 987 "},".":{"x_min":115,"x_max":289,"ha":404,"o":"m 289 0 l 115 0 l 115 186 l 289 186 l 289 0 "},"f":{"x_min":22,"x_max":404,"ha":411,"o":"m 404 746 l 404 591 l 279 591 l 279 0 l 111 0 l 111 591 l 22 591 l 22 746 l 105 746 l 105 766 q 170 942 105 884 q 368 1000 235 1000 q 385 999 373 1000 q 404 999 397 999 l 404 843 l 391 843 q 307 823 332 843 q 281 759 281 804 l 281 746 l 404 746 "},"“":{"x_min":84,"x_max":515,"ha":589,"o":"m 341 641 l 341 818 q 382 959 341 915 q 515 1006 424 1004 l 515 906 q 471 886 484 901 q 458 839 458 871 l 458 829 l 515 829 l 515 641 l 341 641 m 84 641 l 84 818 q 125 959 84 915 q 258 1006 167 1004 l 258 906 q 214 886 227 901 q 201 839 201 871 l 201 829 l 258 829 l 258 641 l 84 641 "},"A":{"x_min":-52,"x_max":876,"ha":836,"o":"m 527 390 l 410 707 l 291 390 l 527 390 m 225 207 l 148 0 l -52 0 l 331 987 l 498 987 l 876 0 l 669 0 l 591 207 l 225 207 "},"O":{"x_min":39,"x_max":1054,"ha":1093,"o":"m 242 502 q 263 383 242 438 q 325 283 284 328 q 428 206 370 233 q 547 180 486 180 q 765 272 677 180 q 853 502 853 364 q 764 717 853 628 q 551 807 676 807 q 332 718 422 807 q 242 502 242 629 m 39 495 q 60 649 39 576 q 125 784 82 721 q 308 949 198 891 q 550 1007 419 1007 q 739 969 648 1007 q 902 859 830 931 q 1015 693 976 785 q 1054 499 1054 601 q 1017 300 1054 393 q 910 136 981 207 q 745 20 839 60 q 547 -20 650 -20 q 344 19 437 -20 q 179 136 251 58 q 74 300 110 209 q 39 495 39 391 "},"π":{"x_min":12,"x_max":890,"ha":928,"o":"m 243 603 l 213 603 q 156 581 176 603 q 129 514 136 560 l 12 514 q 79 686 30 640 q 243 733 128 733 l 890 733 l 863 603 l 732 603 l 675 306 q 669 278 674 297 q 655 178 655 202 q 670 123 655 139 q 722 107 686 107 q 751 108 735 107 q 792 113 768 110 l 769 0 q 727 -8 749 -5 q 676 -11 705 -11 q 539 21 582 -11 q 496 126 496 54 q 531 359 496 178 l 532 363 l 579 603 l 397 603 l 280 0 l 127 0 l 243 603 "},"‘":{"x_min":85,"x_max":259,"ha":330,"o":"m 85 641 l 85 818 q 126 959 85 915 q 259 1006 168 1004 l 259 906 q 215 886 228 901 q 202 839 202 871 l 202 829 l 259 829 l 259 641 l 85 641 "},"3":{"x_min":78,"x_max":728,"ha":807,"o":"m 78 316 l 262 316 l 262 309 q 299 198 262 240 q 397 156 336 156 q 506 203 464 156 q 548 325 548 250 q 501 441 548 402 q 364 480 455 480 q 351 479 360 480 q 336 479 341 479 l 336 642 q 350 641 341 642 q 363 641 359 641 q 453 665 424 641 q 482 743 482 690 q 459 810 482 786 q 397 835 437 835 q 341 810 361 835 q 320 741 322 785 l 149 741 q 220 933 149 860 q 408 1007 291 1007 q 584 934 512 1007 q 657 760 657 861 q 633 655 657 700 q 560 575 609 610 q 686 471 644 537 q 728 309 728 405 q 707 191 728 245 q 644 88 687 137 q 538 5 593 30 q 403 -20 482 -20 q 164 68 250 -20 q 78 311 78 156 l 78 316 "},"9":{"x_min":56,"x_max":753,"ha":807,"o":"m 567 651 q 519 777 567 725 q 406 830 472 830 q 290 781 336 830 q 245 657 245 732 q 289 534 245 582 q 403 486 334 486 q 518 534 470 486 q 567 651 567 583 m 399 0 l 198 0 l 421 336 q 378 328 395 330 q 346 326 361 326 q 140 423 224 326 q 56 659 56 520 q 78 776 56 716 q 140 883 101 836 q 258 976 194 946 q 405 1006 322 1006 q 540 980 477 1006 q 651 905 603 954 q 726 795 700 857 q 753 669 753 733 q 724 521 753 596 q 613 324 695 447 l 399 0 "},"l":{"x_min":78,"x_max":248,"ha":325,"o":"m 78 0 l 78 987 l 248 987 l 248 0 l 78 0 "},"":{"x_min":22,"x_max":640,"ha":717,"o":"m 469 0 l 469 746 l 640 746 l 640 0 l 469 0 m 640 822 l 469 822 l 469 987 l 640 987 l 640 822 m 404 746 l 404 591 l 279 591 l 279 0 l 111 0 l 111 591 l 22 591 l 22 746 l 105 746 l 105 766 q 170 942 105 884 q 368 1000 235 1000 q 385 999 373 1000 q 404 999 397 999 l 404 843 l 391 843 q 307 823 332 843 q 281 759 281 804 l 281 746 l 404 746 "},"4":{"x_min":60,"x_max":746,"ha":807,"o":"m 493 313 l 493 725 l 230 313 l 493 313 m 663 0 l 493 0 l 493 149 l 60 149 l 60 313 l 486 987 l 663 987 l 663 313 l 746 313 l 746 149 l 663 149 l 663 0 "},"Ü":{"x_min":82,"x_max":718,"ha":800,"o":"m 82 987 l 275 987 l 275 417 q 303 231 275 283 q 400 180 331 180 q 496 231 468 180 q 525 417 525 283 l 525 987 l 718 987 l 718 360 q 706 203 718 255 q 667 112 694 151 q 556 12 621 44 q 400 -20 491 -20 q 243 12 308 -20 q 132 112 178 44 q 93 200 105 151 q 82 360 82 249 l 82 987 m 449 1115 l 449 1270 l 588 1270 l 588 1115 l 449 1115 m 212 1115 l 212 1270 l 351 1270 l 351 1115 l 212 1115 "},"à":{"x_min":32,"x_max":819,"ha":895,"o":"m 210 379 q 272 221 210 284 q 425 158 335 158 q 569 221 506 158 q 631 371 631 285 q 568 527 631 462 q 422 593 506 593 q 272 530 334 593 q 210 379 210 468 m 651 0 l 651 91 q 563 9 619 35 q 418 -17 506 -17 q 142 95 253 -17 q 32 376 32 208 q 59 525 32 455 q 139 649 87 596 q 262 736 194 708 q 414 765 329 765 q 554 737 495 765 q 648 655 613 710 l 648 746 l 819 746 l 819 0 l 651 0 m 547 843 l 458 843 l 258 1079 l 408 1079 l 547 843 "},"ó":{"x_min":32,"x_max":814,"ha":846,"o":"m 211 377 q 268 212 211 273 q 422 152 325 152 q 576 214 519 152 q 634 381 634 276 q 573 536 634 475 q 422 597 513 597 q 270 535 329 597 q 211 377 211 474 m 32 376 q 60 525 32 454 q 144 651 89 596 q 271 737 200 707 q 417 768 341 768 q 566 741 498 768 q 691 660 634 714 q 782 530 750 604 q 814 380 814 457 q 786 224 814 294 q 702 96 758 153 q 575 9 647 39 q 421 -20 504 -20 q 268 9 337 -20 q 141 99 198 39 q 59 227 87 157 q 32 376 32 298 m 325 843 l 463 1079 l 614 1079 l 413 843 l 325 843 "}}}
